<?xml version="1.0" encoding="UTF-8"?>
<!DOCTYPE svg PUBLIC "-//W3C//DTD SVG 1.1//EN" "http://www.w3.org/Graphics/SVG/1.1/DTD/svg11.dtd">
<!-- Creator: CorelDRAW 2018 (64-Bit) -->
<svg xmlns="http://www.w3.org/2000/svg" xml:space="preserve" width="1146px" height="1606px" version="1.1" shape-rendering="geometricPrecision" text-rendering="geometricPrecision" image-rendering="optimizeQuality" fill-rule="evenodd" clip-rule="evenodd"
viewBox="0 0 1146 1606.76"
 xmlns:xlink="http://www.w3.org/1999/xlink">
 <g id="Layer_x0020_1">
  <metadata id="CorelCorpID_0Corel-Layer"/>
  <g id="_3092365392864">
   <g>
    <g>
     <polygon fill="white" points="111.56,3.15 183.7,3.15 183.7,74.42 249.69,74.42 249.69,3.15 321.82,3.15 321.82,218.98 249.69,218.98 249.69,146.7 183.7,146.7 183.7,218.98 111.56,218.98 111.56,3.15 "/>
     <polygon fill="white" points="416.69,74.72 353.18,74.72 353.18,3.15 552.36,3.15 552.36,74.72 488.83,74.72 488.83,218.98 416.69,218.98 416.69,74.72 "/>
     <polygon fill="white" points="583.98,3.15 659.19,3.15 705.46,78.99 751.69,3.15 826.93,3.15 826.93,218.98 755.09,218.98 755.09,112 705.46,188.74 704.22,188.74 654.56,112 654.56,218.97 583.98,218.98 "/>
     <polygon fill="white" points="862.83,3.15 934.99,3.15 934.99,147.64 1036.44,147.64 1036.44,218.97 862.83,218.98 "/>
    </g>
   </g>
  </g>
  <g id="Guides_to_delete">
   <g>
    <polygon fill="#E34E26" points="107.63,1474.6 4.12,313.54 1140.99,313.54 1037.35,1474.68 572.28,1603.61 "/>
    <polygon fill="#EF662A" points="572.55,408.45 572.55,1504.99 948.62,1400.74 1037.23,408.45 "/>
    <polygon fill="white" points="215.9,550.86 254.29,981.49 747.85,981.49 731.29,1166.19 572.37,1209.16 413.76,1166.25 403.15,1047.66 260.21,1047.66 280.65,1276.27 572.33,1357.29 864.39,1276.27 903.55,839.11 384.53,839.11 371.5,693.28 916.01,693.28 916.45,693.28 929.21,550.86 "/>
    <g>
     <polygon fill="#EBEBEB" points="572.55,550.86 215.9,550.86 254.29,981.49 572.55,981.49 572.55,839.11 384.53,839.11 371.5,693.28 572.55,693.28 "/>
     <polygon fill="#EBEBEB" points="572.55,1209.09 572.37,1209.16 413.76,1166.25 403.15,1047.66 260.21,1047.66 280.65,1276.27 572.33,1357.29 572.55,1357.23 "/>
    </g>
   </g>
  </g>
 </g>
</svg>
