<?xml version="1.0" encoding="UTF-8"?>
<!DOCTYPE svg PUBLIC "-//W3C//DTD SVG 1.1//EN" "http://www.w3.org/Graphics/SVG/1.1/DTD/svg11.dtd">
<!-- Creator: CorelDRAW 2018 (64-Bit) -->
<svg xmlns="http://www.w3.org/2000/svg" xml:space="preserve" width="1146px" height="1606px" version="1.1" shape-rendering="geometricPrecision" text-rendering="geometricPrecision" image-rendering="optimizeQuality" fill-rule="evenodd" clip-rule="evenodd"
viewBox="0 0 1146 1606.76"
 xmlns:xlink="http://www.w3.org/1999/xlink">
 <g id="Layer_x0020_1">
  <metadata id="CorelCorpID_0Corel-Layer"/>
  <g id="g5193">
   <path id="path5113" fill="#D4B830" d="M110.08 1468.18l-105.28 -1159 1134.23 0.45 -104.4 1157.67 -463.6 130.94 -460.95 -130.06zm839.17 -63.26l88.03 -992.66 -464.48 0 3.54 1094.85 372.91 -102.19zm-419.8 -847.13l-112.81 0 -1.32 594.1 -218.97 -59.72 0.44 135.81 332.66 89.8 0 -759.99z"/>
   <path id="path5159" fill="#EBEBEB" fill-opacity="0.000000" d="M492.29 1306.72c-14.6,-4.42 -86.71,-23.89 -160.14,-43.79l-133.15 -35.84 0 -66.79c0,-65.47 0,-66.8 6.63,-64.59 3.54,1.33 52.2,14.6 107.94,30.08l101.3 27.87 0.89 -296.38 0.88 -296.39 110.6 0 0 376.89c0,299.49 -0.89,376.9 -3.99,376.9 -2.21,-0.44 -16.36,-3.98 -30.96,-7.96l0 0z"/>
   <path id="path5157" fill="#EBEBEB" fill-opacity="0.905882" d="M196.79 1227.98l-0.44 -135.81c0,0 139.78,39.37 218.97,59.72l1.32 -593.65 112.81 0 0 759.54 -332.66 -89.8z"/>
   <path id="path5117" fill="#FDD83C" d="M572.8 411.81l464.48 0 -88.03 992.67 -376.45 102.19 0 -1094.86zm352.56 826.34l30.53 -371.14 -225.61 25.21 0 -198.18 240.65 -0.88 9.73 -135.37 -363.18 1.77 4.86 492.8 219.42 -37.6 -3.1 109.7 -221.18 58.84 2.21 134.48 305.68 -79.63 -0.01 0z"/>
  </g>
 </g>
</svg>
