<svg xmlns="http://www.w3.org/2000/svg" xml:space="preserve" width="496px" height="496px" version="1.1" shape-rendering="geometricPrecision" text-rendering="geometricPrecision" image-rendering="optimizeQuality" fill-rule="evenodd" clip-rule="evenodd"
viewBox="0 0 496 496"
 xmlns:xlink="http://www.w3.org/1999/xlink">
 <g id="Layer_x0020_1">
  <path fill="#707070" fill-rule="nonzero" d="M431.66 373.94l52.84 0c-16.49,33.73 -41.85,60.11 -76.09,79.22 -39.06,21.89 -86.83,32.89 -143.14,32.89 -54.53,0 -101.54,-9.22 -141.19,-27.65 -39.65,-18.52 -69.16,-45.74 -88.44,-81.67 -19.36,-36.02 -29,-75.16 -29,-117.61 0,-46.5 10.99,-89.78 32.98,-129.94 21.89,-40.08 51.99,-70.18 90.12,-90.3 38.13,-20.12 81.76,-30.18 130.79,-30.18 41.6,0 78.63,8.12 110.93,24.26 32.38,16.24 57.15,39.23 74.23,69.08 17.08,29.84 25.62,62.39 25.62,97.73 0,42.19 -12.94,80.24 -38.89,114.31 -32.47,42.95 -74.15,64.42 -124.96,64.42 -13.7,0 -24.01,-2.36 -30.95,-7.1 -6.93,-4.82 -11.49,-11.75 -13.86,-20.97 -19.45,18.69 -41.94,28.07 -67.3,28.07 -27.39,0 -50.14,-9.47 -68.23,-28.32 -18.09,-18.94 -27.14,-44.05 -27.14,-75.41 0,-38.81 10.91,-74.15 32.64,-106.19 26.46,-38.98 60.28,-58.43 101.54,-58.43 29.33,0 51.06,11.25 65.01,33.74l6.17 -27.65 65.36 0 -37.46 177.38c-2.28,11.24 -3.46,18.52 -3.46,21.81 0,4.06 0.93,7.19 2.87,9.22 1.86,2.11 4.14,3.13 6.77,3.13 7.94,0 18.17,-4.82 30.77,-14.38 16.83,-12.51 30.44,-29.42 40.84,-50.47 10.4,-21.14 15.64,-43.04 15.64,-65.69 0,-40.59 -14.71,-74.57 -44.05,-101.88 -29.42,-27.31 -70.43,-41.01 -123.1,-41.01 -44.72,0 -82.69,9.13 -113.8,27.4 -31.11,18.34 -54.53,44.05 -70.26,77.27 -15.81,33.14 -23.67,67.72 -23.67,103.66 0,34.91 8.79,66.62 26.38,95.28 17.58,28.66 42.27,49.54 74.06,62.73 31.71,13.11 68.06,19.7 109.07,19.7 39.39,0 73.38,-5.58 101.7,-16.65 28.41,-11.08 51.32,-27.65 68.66,-49.8zm-267.25 -101.8c0,20.97 4.22,36.44 12.68,46.34 8.54,9.89 19.02,14.88 31.53,14.88 9.39,0 18.18,-2.29 26.38,-6.94 6.26,-3.29 12.43,-8.54 18.52,-15.64 8.79,-10.06 16.31,-24.69 22.66,-44.05 6.34,-19.27 9.46,-37.28 9.46,-54.02 0,-18.6 -4.31,-32.97 -12.93,-42.95 -8.71,-9.98 -19.62,-14.97 -32.72,-14.97 -14.2,0 -27.31,5.5 -39.31,16.49 -12.01,10.99 -21.06,26.63 -27.14,46.92 -6.09,20.29 -9.13,38.3 -9.13,53.94z"/>
 </g>
</svg>
