<?xml version="1.0" encoding="UTF-8"?>
<!DOCTYPE svg PUBLIC "-//W3C//DTD SVG 1.1//EN" "http://www.w3.org/Graphics/SVG/1.1/DTD/svg11.dtd">
<!-- Creator: CorelDRAW 2018 (64-Bit) -->
<svg xmlns="http://www.w3.org/2000/svg" xml:space="preserve" width="650px" height="650px" version="1.1" shape-rendering="geometricPrecision" text-rendering="geometricPrecision" image-rendering="optimizeQuality" fill-rule="evenodd" clip-rule="evenodd"
viewBox="0 0 650 650"
 xmlns:xlink="http://www.w3.org/1999/xlink">
 <defs>
   <linearGradient id="id0" gradientUnits="userSpaceOnUse" x1="568.02" y1="519.19" x2="497.92" y2="456">
    <stop offset="0" stop-opacity="1" stop-color="#BEF74B"/>
    <stop offset="0.258824" stop-opacity="1" stop-color="#64CA38"/>
    <stop offset="1" stop-opacity="1" stop-color="#8BFD4A"/>
   </linearGradient>
   <linearGradient id="id1" gradientUnits="userSpaceOnUse" x1="372.21" y1="636.21" x2="354.96" y2="539.57">
    <stop offset="0" stop-opacity="1" stop-color="#BEF74B"/>
    <stop offset="0.258824" stop-opacity="1" stop-color="#64CA38"/>
    <stop offset="1" stop-opacity="1" stop-color="#8BFD4A"/>
   </linearGradient>
   <linearGradient id="id2" gradientUnits="userSpaceOnUse" x1="115.52" y1="98.67" x2="183.87" y2="163.37">
    <stop offset="0" stop-opacity="1" stop-color="#BEF74B"/>
    <stop offset="0.258824" stop-opacity="1" stop-color="#64CA38"/>
    <stop offset="1" stop-opacity="1" stop-color="#8BFD4A"/>
   </linearGradient>
   <linearGradient id="id3" gradientUnits="userSpaceOnUse" x1="319.02" y1="9.64" x2="323.79" y2="114.04">
    <stop offset="0" stop-opacity="1" stop-color="#BEF74B"/>
    <stop offset="0.258824" stop-opacity="1" stop-color="#64CA38"/>
    <stop offset="1" stop-opacity="1" stop-color="#8BFD4A"/>
   </linearGradient>
   <linearGradient id="id4" gradientUnits="userSpaceOnUse" x1="211.5" y1="36.53" x2="247.84" y2="124.34">
    <stop offset="0" stop-opacity="1" stop-color="#BEF74B"/>
    <stop offset="0.258824" stop-opacity="1" stop-color="#64CA38"/>
    <stop offset="1" stop-opacity="1" stop-color="#8BFD4A"/>
   </linearGradient>
   <linearGradient id="id5" gradientUnits="userSpaceOnUse" x1="427.17" y1="35.47" x2="399.61" y2="128.07">
    <stop offset="0" stop-opacity="1" stop-color="#BEF74B"/>
    <stop offset="0.258824" stop-opacity="1" stop-color="#64CA38"/>
    <stop offset="1" stop-opacity="1" stop-color="#8BFD4A"/>
   </linearGradient>
   <linearGradient id="id6" gradientUnits="userSpaceOnUse" x1="625.44" y1="416.26" x2="530.64" y2="391.42">
    <stop offset="0" stop-opacity="1" stop-color="#BEF74B"/>
    <stop offset="0.258824" stop-opacity="1" stop-color="#64CA38"/>
    <stop offset="1" stop-opacity="1" stop-color="#8BFD4A"/>
   </linearGradient>
   <linearGradient id="id7" gradientUnits="userSpaceOnUse" x1="639.22" y1="309.53" x2="537.81" y2="314.21">
    <stop offset="0" stop-opacity="1" stop-color="#BEF74B"/>
    <stop offset="0.258824" stop-opacity="1" stop-color="#64CA38"/>
    <stop offset="1" stop-opacity="1" stop-color="#8BFD4A"/>
   </linearGradient>
   <linearGradient id="id8" gradientUnits="userSpaceOnUse" x1="604.08" y1="196.67" x2="517.86" y2="235.32">
    <stop offset="0" stop-opacity="1" stop-color="#BEF74B"/>
    <stop offset="0.258824" stop-opacity="1" stop-color="#64CA38"/>
    <stop offset="1" stop-opacity="1" stop-color="#8BFD4A"/>
   </linearGradient>
   <linearGradient id="id9" gradientUnits="userSpaceOnUse" x1="534.13" y1="100.77" x2="467.22" y2="167.13">
    <stop offset="0" stop-opacity="1" stop-color="#BEF74B"/>
    <stop offset="0.258824" stop-opacity="1" stop-color="#64CA38"/>
    <stop offset="1" stop-opacity="1" stop-color="#8BFD4A"/>
   </linearGradient>
   <linearGradient id="id10" gradientUnits="userSpaceOnUse" x1="263.74" y1="637.45" x2="277.86" y2="537.31">
    <stop offset="0" stop-opacity="1" stop-color="#BEF74B"/>
    <stop offset="0.258824" stop-opacity="1" stop-color="#64CA38"/>
    <stop offset="1" stop-opacity="1" stop-color="#8BFD4A"/>
   </linearGradient>
   <linearGradient id="id11" gradientUnits="userSpaceOnUse" x1="161.62" y1="591.32" x2="208.99" y2="510.46">
    <stop offset="0" stop-opacity="1" stop-color="#BEF74B"/>
    <stop offset="0.258824" stop-opacity="1" stop-color="#64CA38"/>
    <stop offset="1" stop-opacity="1" stop-color="#8BFD4A"/>
   </linearGradient>
   <linearGradient id="id12" gradientUnits="userSpaceOnUse" x1="78.14" y1="512.05" x2="154.14" y2="456.12">
    <stop offset="0" stop-opacity="1" stop-color="#BEF74B"/>
    <stop offset="0.258824" stop-opacity="1" stop-color="#64CA38"/>
    <stop offset="1" stop-opacity="1" stop-color="#8BFD4A"/>
   </linearGradient>
   <linearGradient id="id13" gradientUnits="userSpaceOnUse" x1="24.81" y1="403.27" x2="118.51" y2="378.41">
    <stop offset="0" stop-opacity="1" stop-color="#BEF74B"/>
    <stop offset="0.258824" stop-opacity="1" stop-color="#64CA38"/>
    <stop offset="1" stop-opacity="1" stop-color="#8BFD4A"/>
   </linearGradient>
   <linearGradient id="id14" gradientUnits="userSpaceOnUse" x1="9.37" y1="294.23" x2="112.37" y2="302.68">
    <stop offset="0" stop-opacity="1" stop-color="#BEF74B"/>
    <stop offset="0.258824" stop-opacity="1" stop-color="#64CA38"/>
    <stop offset="1" stop-opacity="1" stop-color="#8BFD4A"/>
   </linearGradient>
   <linearGradient id="id15" gradientUnits="userSpaceOnUse" x1="46.1" y1="186.93" x2="130.39" y2="228.69">
    <stop offset="0" stop-opacity="1" stop-color="#BEF74B"/>
    <stop offset="0.258824" stop-opacity="1" stop-color="#64CA38"/>
    <stop offset="1" stop-opacity="1" stop-color="#8BFD4A"/>
   </linearGradient>
   <linearGradient id="id16" gradientUnits="userSpaceOnUse" x1="553.07" y1="506.08" x2="506.41" y2="465.88">
    <stop offset="0" stop-opacity="1" stop-color="#044E00"/>
    <stop offset="0.478431" stop-opacity="1" stop-color="#119800"/>
    <stop offset="1" stop-opacity="1" stop-color="#37ED0D"/>
   </linearGradient>
   <linearGradient id="id17" gradientUnits="userSpaceOnUse" x1="368.71" y1="615.33" x2="356.15" y2="551.94">
    <stop offset="0" stop-opacity="1" stop-color="#044E00"/>
    <stop offset="0.478431" stop-opacity="1" stop-color="#119800"/>
    <stop offset="1" stop-opacity="1" stop-color="#37ED0D"/>
   </linearGradient>
   <linearGradient id="id18" gradientUnits="userSpaceOnUse" x1="129.58" y1="112.4" x2="173.06" y2="155.62">
    <stop offset="0" stop-opacity="1" stop-color="#044E00"/>
    <stop offset="0.478431" stop-opacity="1" stop-color="#119800"/>
    <stop offset="1" stop-opacity="1" stop-color="#37ED0D"/>
   </linearGradient>
   <linearGradient id="id19" gradientUnits="userSpaceOnUse" x1="320.34" y1="32.45" x2="322.51" y2="100.46">
    <stop offset="0" stop-opacity="1" stop-color="#044E00"/>
    <stop offset="0.478431" stop-opacity="1" stop-color="#119800"/>
    <stop offset="1" stop-opacity="1" stop-color="#37ED0D"/>
   </linearGradient>
   <linearGradient id="id20" gradientUnits="userSpaceOnUse" x1="219.56" y1="55.28" x2="243.19" y2="113.31">
    <stop offset="0" stop-opacity="1" stop-color="#044E00"/>
    <stop offset="0.478431" stop-opacity="1" stop-color="#119800"/>
    <stop offset="1" stop-opacity="1" stop-color="#37ED0D"/>
   </linearGradient>
   <linearGradient id="id21" gradientUnits="userSpaceOnUse" x1="422" y1="55.09" x2="403.03" y2="115.05">
    <stop offset="0" stop-opacity="1" stop-color="#044E00"/>
    <stop offset="0.478431" stop-opacity="1" stop-color="#119800"/>
    <stop offset="1" stop-opacity="1" stop-color="#37ED0D"/>
   </linearGradient>
   <linearGradient id="id22" gradientUnits="userSpaceOnUse" x1="605.11" y1="410.63" x2="542.32" y2="394.86">
    <stop offset="0" stop-opacity="1" stop-color="#044E00"/>
    <stop offset="0.478431" stop-opacity="1" stop-color="#119800"/>
    <stop offset="1" stop-opacity="1" stop-color="#37ED0D"/>
   </linearGradient>
   <linearGradient id="id23" gradientUnits="userSpaceOnUse" x1="617.11" y1="310.27" x2="550.58" y2="314.44">
    <stop offset="0" stop-opacity="1" stop-color="#044E00"/>
    <stop offset="0.478431" stop-opacity="1" stop-color="#119800"/>
    <stop offset="1" stop-opacity="1" stop-color="#37ED0D"/>
   </linearGradient>
   <linearGradient id="id24" gradientUnits="userSpaceOnUse" x1="586" y1="204.93" x2="530.42" y2="230.92">
    <stop offset="0" stop-opacity="1" stop-color="#044E00"/>
    <stop offset="0.478431" stop-opacity="1" stop-color="#119800"/>
    <stop offset="1" stop-opacity="1" stop-color="#37ED0D"/>
   </linearGradient>
   <linearGradient id="id25" gradientUnits="userSpaceOnUse" x1="520.39" y1="114.88" x2="477.91" y2="159.16">
    <stop offset="0" stop-opacity="1" stop-color="#044E00"/>
    <stop offset="0.478431" stop-opacity="1" stop-color="#119800"/>
    <stop offset="1" stop-opacity="1" stop-color="#37ED0D"/>
   </linearGradient>
   <linearGradient id="id26" gradientUnits="userSpaceOnUse" x1="267.07" y1="615.95" x2="275.56" y2="549.96">
    <stop offset="0" stop-opacity="1" stop-color="#044E00"/>
    <stop offset="0.478431" stop-opacity="1" stop-color="#119800"/>
    <stop offset="1" stop-opacity="1" stop-color="#37ED0D"/>
   </linearGradient>
   <linearGradient id="id27" gradientUnits="userSpaceOnUse" x1="171.91" y1="574.04" x2="203.19" y2="520.46">
    <stop offset="0" stop-opacity="1" stop-color="#044E00"/>
    <stop offset="0.478431" stop-opacity="1" stop-color="#119800"/>
    <stop offset="1" stop-opacity="1" stop-color="#37ED0D"/>
   </linearGradient>
   <linearGradient id="id28" gradientUnits="userSpaceOnUse" x1="93.9" y1="499.89" x2="142.65" y2="462.5">
    <stop offset="0" stop-opacity="1" stop-color="#044E00"/>
    <stop offset="0.478431" stop-opacity="1" stop-color="#119800"/>
    <stop offset="1" stop-opacity="1" stop-color="#37ED0D"/>
   </linearGradient>
   <linearGradient id="id29" gradientUnits="userSpaceOnUse" x1="44.79" y1="398.53" x2="105.76" y2="381.18">
    <stop offset="0" stop-opacity="1" stop-color="#044E00"/>
    <stop offset="0.478431" stop-opacity="1" stop-color="#119800"/>
    <stop offset="1" stop-opacity="1" stop-color="#37ED0D"/>
   </linearGradient>
   <linearGradient id="id30" gradientUnits="userSpaceOnUse" x1="31.69" y1="296.34" x2="99.14" y2="300.99">
    <stop offset="0" stop-opacity="1" stop-color="#044E00"/>
    <stop offset="0.478431" stop-opacity="1" stop-color="#119800"/>
    <stop offset="1" stop-opacity="1" stop-color="#37ED0D"/>
   </linearGradient>
   <linearGradient id="id31" gradientUnits="userSpaceOnUse" x1="64.11" y1="196.09" x2="119.88" y2="223.48">
    <stop offset="0" stop-opacity="1" stop-color="#044E00"/>
    <stop offset="0.478431" stop-opacity="1" stop-color="#119800"/>
    <stop offset="1" stop-opacity="1" stop-color="#37ED0D"/>
   </linearGradient>
   <linearGradient id="id32" gradientUnits="userSpaceOnUse" x1="482.76" y1="592.62" x2="432.23" y2="513.22">
    <stop offset="0" stop-opacity="1" stop-color="#BEF74B"/>
    <stop offset="0.258824" stop-opacity="1" stop-color="#64CA38"/>
    <stop offset="1" stop-opacity="1" stop-color="#8BFD4A"/>
   </linearGradient>
   <linearGradient id="id33" gradientUnits="userSpaceOnUse" x1="471.11" y1="576.09" x2="437.67" y2="525.05">
    <stop offset="0" stop-opacity="1" stop-color="#044E00"/>
    <stop offset="0.478431" stop-opacity="1" stop-color="#119800"/>
    <stop offset="1" stop-opacity="1" stop-color="#37ED0D"/>
   </linearGradient>
   <linearGradient id="id34" gradientUnits="userSpaceOnUse" x1="517.43" y1="550.43" x2="462.29" y2="479.85">
    <stop offset="0" stop-opacity="1" stop-color="#BEF74B"/>
    <stop offset="0.258824" stop-opacity="1" stop-color="#64CA38"/>
    <stop offset="1" stop-opacity="1" stop-color="#8BFD4A"/>
   </linearGradient>
   <linearGradient id="id35" gradientUnits="userSpaceOnUse" x1="316.07" y1="628.45" x2="315.55" y2="530.57">
    <stop offset="0" stop-opacity="1" stop-color="#BEF74B"/>
    <stop offset="0.258824" stop-opacity="1" stop-color="#64CA38"/>
    <stop offset="1" stop-opacity="1" stop-color="#8BFD4A"/>
   </linearGradient>
   <linearGradient id="id36" gradientUnits="userSpaceOnUse" x1="169.75" y1="74.53" x2="221.34" y2="147.63">
    <stop offset="0" stop-opacity="1" stop-color="#BEF74B"/>
    <stop offset="0.258824" stop-opacity="1" stop-color="#64CA38"/>
    <stop offset="1" stop-opacity="1" stop-color="#8BFD4A"/>
   </linearGradient>
   <linearGradient id="id37" gradientUnits="userSpaceOnUse" x1="373.87" y1="33.2" x2="362.87" y2="127.16">
    <stop offset="0" stop-opacity="1" stop-color="#BEF74B"/>
    <stop offset="0.258824" stop-opacity="1" stop-color="#64CA38"/>
    <stop offset="1" stop-opacity="1" stop-color="#8BFD4A"/>
   </linearGradient>
   <linearGradient id="id38" gradientUnits="userSpaceOnUse" x1="271.24" y1="32.16" x2="289.72" y2="124.88">
    <stop offset="0" stop-opacity="1" stop-color="#BEF74B"/>
    <stop offset="0.258824" stop-opacity="1" stop-color="#64CA38"/>
    <stop offset="1" stop-opacity="1" stop-color="#8BFD4A"/>
   </linearGradient>
   <linearGradient id="id39" gradientUnits="userSpaceOnUse" x1="477.5" y1="76.79" x2="435.19" y2="155.53">
    <stop offset="0" stop-opacity="1" stop-color="#BEF74B"/>
    <stop offset="0.258824" stop-opacity="1" stop-color="#64CA38"/>
    <stop offset="1" stop-opacity="1" stop-color="#8BFD4A"/>
   </linearGradient>
   <linearGradient id="id40" gradientUnits="userSpaceOnUse" x1="587.21" y1="464.23" x2="507.47" y2="423.83">
    <stop offset="0" stop-opacity="1" stop-color="#BEF74B"/>
    <stop offset="0.258824" stop-opacity="1" stop-color="#64CA38"/>
    <stop offset="1" stop-opacity="1" stop-color="#8BFD4A"/>
   </linearGradient>
   <linearGradient id="id41" gradientUnits="userSpaceOnUse" x1="623.92" y1="364.22" x2="527.39" y2="353.37">
    <stop offset="0" stop-opacity="1" stop-color="#BEF74B"/>
    <stop offset="0.258824" stop-opacity="1" stop-color="#64CA38"/>
    <stop offset="1" stop-opacity="1" stop-color="#8BFD4A"/>
   </linearGradient>
   <linearGradient id="id42" gradientUnits="userSpaceOnUse" x1="613.09" y1="258.42" x2="522.76" y2="278.9">
    <stop offset="0" stop-opacity="1" stop-color="#BEF74B"/>
    <stop offset="0.258824" stop-opacity="1" stop-color="#64CA38"/>
    <stop offset="1" stop-opacity="1" stop-color="#8BFD4A"/>
   </linearGradient>
   <linearGradient id="id43" gradientUnits="userSpaceOnUse" x1="562.49" y1="153.43" x2="488.84" y2="204.92">
    <stop offset="0" stop-opacity="1" stop-color="#BEF74B"/>
    <stop offset="0.258824" stop-opacity="1" stop-color="#64CA38"/>
    <stop offset="1" stop-opacity="1" stop-color="#8BFD4A"/>
   </linearGradient>
   <linearGradient id="id44" gradientUnits="userSpaceOnUse" x1="214.71" y1="602.87" x2="243.75" y2="515.58">
    <stop offset="0" stop-opacity="1" stop-color="#BEF74B"/>
    <stop offset="0.258824" stop-opacity="1" stop-color="#64CA38"/>
    <stop offset="1" stop-opacity="1" stop-color="#8BFD4A"/>
   </linearGradient>
   <linearGradient id="id45" gradientUnits="userSpaceOnUse" x1="125.95" y1="542.48" x2="187.63" y2="477.12">
    <stop offset="0" stop-opacity="1" stop-color="#BEF74B"/>
    <stop offset="0.258824" stop-opacity="1" stop-color="#64CA38"/>
    <stop offset="1" stop-opacity="1" stop-color="#8BFD4A"/>
   </linearGradient>
   <linearGradient id="id46" gradientUnits="userSpaceOnUse" x1="60.1" y1="449.41" x2="142.18" y2="412.79">
    <stop offset="0" stop-opacity="1" stop-color="#BEF74B"/>
    <stop offset="0.258824" stop-opacity="1" stop-color="#64CA38"/>
    <stop offset="1" stop-opacity="1" stop-color="#8BFD4A"/>
   </linearGradient>
   <linearGradient id="id47" gradientUnits="userSpaceOnUse" x1="27.35" y1="345.25" x2="122.78" y2="338.13">
    <stop offset="0" stop-opacity="1" stop-color="#BEF74B"/>
    <stop offset="0.258824" stop-opacity="1" stop-color="#64CA38"/>
    <stop offset="1" stop-opacity="1" stop-color="#8BFD4A"/>
   </linearGradient>
   <linearGradient id="id48" gradientUnits="userSpaceOnUse" x1="39.6" y1="242.41" x2="129.88" y2="265.77">
    <stop offset="0" stop-opacity="1" stop-color="#BEF74B"/>
    <stop offset="0.258824" stop-opacity="1" stop-color="#64CA38"/>
    <stop offset="1" stop-opacity="1" stop-color="#8BFD4A"/>
   </linearGradient>
   <linearGradient id="id49" gradientUnits="userSpaceOnUse" x1="92.67" y1="145.17" x2="161.32" y2="202.59">
    <stop offset="0" stop-opacity="1" stop-color="#BEF74B"/>
    <stop offset="0.258824" stop-opacity="1" stop-color="#64CA38"/>
    <stop offset="1" stop-opacity="1" stop-color="#8BFD4A"/>
   </linearGradient>
   <linearGradient id="id50" gradientUnits="userSpaceOnUse" x1="505.87" y1="535.81" x2="468.8" y2="490.61">
    <stop offset="0" stop-opacity="1" stop-color="#044E00"/>
    <stop offset="0.478431" stop-opacity="1" stop-color="#119800"/>
    <stop offset="1" stop-opacity="1" stop-color="#37ED0D"/>
   </linearGradient>
   <linearGradient id="id51" gradientUnits="userSpaceOnUse" x1="316.22" y1="607.05" x2="314.89" y2="542.79">
    <stop offset="0" stop-opacity="1" stop-color="#044E00"/>
    <stop offset="0.478431" stop-opacity="1" stop-color="#119800"/>
    <stop offset="1" stop-opacity="1" stop-color="#37ED0D"/>
   </linearGradient>
   <linearGradient id="id52" gradientUnits="userSpaceOnUse" x1="181.5" y1="90.14" x2="215.43" y2="138.65">
    <stop offset="0" stop-opacity="1" stop-color="#044E00"/>
    <stop offset="0.478431" stop-opacity="1" stop-color="#119800"/>
    <stop offset="1" stop-opacity="1" stop-color="#37ED0D"/>
   </linearGradient>
   <linearGradient id="id53" gradientUnits="userSpaceOnUse" x1="371.74" y1="53.58" x2="363.38" y2="115.2">
    <stop offset="0" stop-opacity="1" stop-color="#044E00"/>
    <stop offset="0.478431" stop-opacity="1" stop-color="#119800"/>
    <stop offset="1" stop-opacity="1" stop-color="#37ED0D"/>
   </linearGradient>
   <linearGradient id="id54" gradientUnits="userSpaceOnUse" x1="275.49" y1="52.06" x2="287" y2="113.32">
    <stop offset="0" stop-opacity="1" stop-color="#044E00"/>
    <stop offset="0.478431" stop-opacity="1" stop-color="#119800"/>
    <stop offset="1" stop-opacity="1" stop-color="#37ED0D"/>
   </linearGradient>
   <linearGradient id="id55" gradientUnits="userSpaceOnUse" x1="468.06" y1="93.24" x2="439.86" y2="143.94">
    <stop offset="0" stop-opacity="1" stop-color="#044E00"/>
    <stop offset="0.478431" stop-opacity="1" stop-color="#119800"/>
    <stop offset="1" stop-opacity="1" stop-color="#37ED0D"/>
   </linearGradient>
   <linearGradient id="id56" gradientUnits="userSpaceOnUse" x1="570.17" y1="455.37" x2="517.4" y2="428.86">
    <stop offset="0" stop-opacity="1" stop-color="#044E00"/>
    <stop offset="0.478431" stop-opacity="1" stop-color="#119800"/>
    <stop offset="1" stop-opacity="1" stop-color="#37ED0D"/>
   </linearGradient>
   <linearGradient id="id57" gradientUnits="userSpaceOnUse" x1="603.2" y1="361.6" x2="539.69" y2="355.27">
    <stop offset="0" stop-opacity="1" stop-color="#044E00"/>
    <stop offset="0.478431" stop-opacity="1" stop-color="#119800"/>
    <stop offset="1" stop-opacity="1" stop-color="#37ED0D"/>
   </linearGradient>
   <linearGradient id="id58" gradientUnits="userSpaceOnUse" x1="593.68" y1="262.67" x2="534.56" y2="277.31">
    <stop offset="0" stop-opacity="1" stop-color="#044E00"/>
    <stop offset="0.478431" stop-opacity="1" stop-color="#119800"/>
    <stop offset="1" stop-opacity="1" stop-color="#37ED0D"/>
   </linearGradient>
   <linearGradient id="id59" gradientUnits="userSpaceOnUse" x1="547.19" y1="165.49" x2="499.91" y2="199.44">
    <stop offset="0" stop-opacity="1" stop-color="#044E00"/>
    <stop offset="0.478431" stop-opacity="1" stop-color="#119800"/>
    <stop offset="1" stop-opacity="1" stop-color="#37ED0D"/>
   </linearGradient>
   <linearGradient id="id60" gradientUnits="userSpaceOnUse" x1="221.21" y1="584.26" x2="239.91" y2="526.65">
    <stop offset="0" stop-opacity="1" stop-color="#044E00"/>
    <stop offset="0.478431" stop-opacity="1" stop-color="#119800"/>
    <stop offset="1" stop-opacity="1" stop-color="#37ED0D"/>
   </linearGradient>
   <linearGradient id="id61" gradientUnits="userSpaceOnUse" x1="138.58" y1="528.56" x2="177.6" y2="485.01">
    <stop offset="0" stop-opacity="1" stop-color="#044E00"/>
    <stop offset="0.478431" stop-opacity="1" stop-color="#119800"/>
    <stop offset="1" stop-opacity="1" stop-color="#37ED0D"/>
   </linearGradient>
   <linearGradient id="id62" gradientUnits="userSpaceOnUse" x1="77.31" y1="441.59" x2="130.23" y2="416.96">
    <stop offset="0" stop-opacity="1" stop-color="#044E00"/>
    <stop offset="0.478431" stop-opacity="1" stop-color="#119800"/>
    <stop offset="1" stop-opacity="1" stop-color="#37ED0D"/>
   </linearGradient>
   <linearGradient id="id63" gradientUnits="userSpaceOnUse" x1="48.11" y1="343.96" x2="110.7" y2="338.2">
    <stop offset="0" stop-opacity="1" stop-color="#044E00"/>
    <stop offset="0.478431" stop-opacity="1" stop-color="#119800"/>
    <stop offset="1" stop-opacity="1" stop-color="#37ED0D"/>
   </linearGradient>
   <linearGradient id="id64" gradientUnits="userSpaceOnUse" x1="58.96" y1="247.71" x2="118.76" y2="262.53">
    <stop offset="0" stop-opacity="1" stop-color="#044E00"/>
    <stop offset="0.478431" stop-opacity="1" stop-color="#119800"/>
    <stop offset="1" stop-opacity="1" stop-color="#37ED0D"/>
   </linearGradient>
   <linearGradient id="id65" gradientUnits="userSpaceOnUse" x1="107.32" y1="157.46" x2="152.97" y2="194.46">
    <stop offset="0" stop-opacity="1" stop-color="#044E00"/>
    <stop offset="0.478431" stop-opacity="1" stop-color="#119800"/>
    <stop offset="1" stop-opacity="1" stop-color="#37ED0D"/>
   </linearGradient>
   <linearGradient id="id66" gradientUnits="userSpaceOnUse" x1="419.36" y1="605.55" x2="387.95" y2="520.37">
    <stop offset="0" stop-opacity="1" stop-color="#BEF74B"/>
    <stop offset="0.258824" stop-opacity="1" stop-color="#64CA38"/>
    <stop offset="1" stop-opacity="1" stop-color="#8BFD4A"/>
   </linearGradient>
   <linearGradient id="id67" gradientUnits="userSpaceOnUse" x1="413" y1="587.62" x2="391.66" y2="532.66">
    <stop offset="0" stop-opacity="1" stop-color="#044E00"/>
    <stop offset="0.478431" stop-opacity="1" stop-color="#119800"/>
    <stop offset="1" stop-opacity="1" stop-color="#37ED0D"/>
   </linearGradient>
   <linearGradient id="id68" gradientUnits="userSpaceOnUse" x1="451.09" y1="546.86" x2="415.88" y2="478.02">
    <stop offset="0" stop-opacity="1" stop-color="#BEF74B"/>
    <stop offset="0.258824" stop-opacity="1" stop-color="#64CA38"/>
    <stop offset="1" stop-opacity="1" stop-color="#8BFD4A"/>
   </linearGradient>
   <linearGradient id="id69" gradientUnits="userSpaceOnUse" x1="274.28" y1="581.79" x2="285.93" y2="499.5">
    <stop offset="0" stop-opacity="1" stop-color="#BEF74B"/>
    <stop offset="0.258824" stop-opacity="1" stop-color="#64CA38"/>
    <stop offset="1" stop-opacity="1" stop-color="#8BFD4A"/>
   </linearGradient>
   <linearGradient id="id70" gradientUnits="userSpaceOnUse" x1="232.93" y1="86.61" x2="262.64" y2="158.88">
    <stop offset="0" stop-opacity="1" stop-color="#BEF74B"/>
    <stop offset="0.258824" stop-opacity="1" stop-color="#64CA38"/>
    <stop offset="1" stop-opacity="1" stop-color="#8BFD4A"/>
   </linearGradient>
   <linearGradient id="id71" gradientUnits="userSpaceOnUse" x1="409.67" y1="87.05" x2="386.88" y2="163.1">
    <stop offset="0" stop-opacity="1" stop-color="#BEF74B"/>
    <stop offset="0.258824" stop-opacity="1" stop-color="#64CA38"/>
    <stop offset="1" stop-opacity="1" stop-color="#8BFD4A"/>
   </linearGradient>
   <linearGradient id="id72" gradientUnits="userSpaceOnUse" x1="321.2" y1="65.3" x2="325.08" y2="151.12">
    <stop offset="0" stop-opacity="1" stop-color="#BEF74B"/>
    <stop offset="0.258824" stop-opacity="1" stop-color="#64CA38"/>
    <stop offset="1" stop-opacity="1" stop-color="#8BFD4A"/>
   </linearGradient>
   <linearGradient id="id73" gradientUnits="userSpaceOnUse" x1="495.2" y1="138.29" x2="446.63" y2="198.47">
    <stop offset="0" stop-opacity="1" stop-color="#BEF74B"/>
    <stop offset="0.258824" stop-opacity="1" stop-color="#64CA38"/>
    <stop offset="1" stop-opacity="1" stop-color="#8BFD4A"/>
   </linearGradient>
   <linearGradient id="id74" gradientUnits="userSpaceOnUse" x1="525.43" y1="483.45" x2="465.67" y2="434.4">
    <stop offset="0" stop-opacity="1" stop-color="#BEF74B"/>
    <stop offset="0.258824" stop-opacity="1" stop-color="#64CA38"/>
    <stop offset="1" stop-opacity="1" stop-color="#8BFD4A"/>
   </linearGradient>
   <linearGradient id="id75" gradientUnits="userSpaceOnUse" x1="571.25" y1="401.1" x2="493.93" y2="379.48">
    <stop offset="0" stop-opacity="1" stop-color="#BEF74B"/>
    <stop offset="0.258824" stop-opacity="1" stop-color="#64CA38"/>
    <stop offset="1" stop-opacity="1" stop-color="#8BFD4A"/>
   </linearGradient>
   <linearGradient id="id76" gradientUnits="userSpaceOnUse" x1="583.64" y1="310.32" x2="500.64" y2="315.1">
    <stop offset="0" stop-opacity="1" stop-color="#BEF74B"/>
    <stop offset="0.258824" stop-opacity="1" stop-color="#64CA38"/>
    <stop offset="1" stop-opacity="1" stop-color="#8BFD4A"/>
   </linearGradient>
   <linearGradient id="id77" gradientUnits="userSpaceOnUse" x1="554.4" y1="219.84" x2="483" y2="250.69">
    <stop offset="0" stop-opacity="1" stop-color="#BEF74B"/>
    <stop offset="0.258824" stop-opacity="1" stop-color="#64CA38"/>
    <stop offset="1" stop-opacity="1" stop-color="#8BFD4A"/>
   </linearGradient>
   <linearGradient id="id78" gradientUnits="userSpaceOnUse" x1="188.52" y1="542.42" x2="227.62" y2="476.06">
    <stop offset="0" stop-opacity="1" stop-color="#BEF74B"/>
    <stop offset="0.258824" stop-opacity="1" stop-color="#64CA38"/>
    <stop offset="1" stop-opacity="1" stop-color="#8BFD4A"/>
   </linearGradient>
   <linearGradient id="id79" gradientUnits="userSpaceOnUse" x1="122.56" y1="479.55" x2="183.84" y2="432.22">
    <stop offset="0" stop-opacity="1" stop-color="#BEF74B"/>
    <stop offset="0.258824" stop-opacity="1" stop-color="#64CA38"/>
    <stop offset="1" stop-opacity="1" stop-color="#8BFD4A"/>
   </linearGradient>
   <linearGradient id="id80" gradientUnits="userSpaceOnUse" x1="78.22" y1="388.28" x2="155.87" y2="369.52">
    <stop offset="0" stop-opacity="1" stop-color="#BEF74B"/>
    <stop offset="0.258824" stop-opacity="1" stop-color="#64CA38"/>
    <stop offset="1" stop-opacity="1" stop-color="#8BFD4A"/>
   </linearGradient>
   <linearGradient id="id81" gradientUnits="userSpaceOnUse" x1="66.03" y1="299.47" x2="151.11" y2="305.54">
    <stop offset="0" stop-opacity="1" stop-color="#BEF74B"/>
    <stop offset="0.258824" stop-opacity="1" stop-color="#64CA38"/>
    <stop offset="1" stop-opacity="1" stop-color="#8BFD4A"/>
   </linearGradient>
   <linearGradient id="id82" gradientUnits="userSpaceOnUse" x1="96.96" y1="211.84" x2="166.83" y2="245.23">
    <stop offset="0" stop-opacity="1" stop-color="#BEF74B"/>
    <stop offset="0.258824" stop-opacity="1" stop-color="#64CA38"/>
    <stop offset="1" stop-opacity="1" stop-color="#8BFD4A"/>
   </linearGradient>
   <linearGradient id="id83" gradientUnits="userSpaceOnUse" x1="155.14" y1="137.09" x2="205.29" y2="195.9">
    <stop offset="0" stop-opacity="1" stop-color="#BEF74B"/>
    <stop offset="0.258824" stop-opacity="1" stop-color="#64CA38"/>
    <stop offset="1" stop-opacity="1" stop-color="#8BFD4A"/>
   </linearGradient>
   <linearGradient id="id84" gradientUnits="userSpaceOnUse" x1="443.32" y1="532.46" x2="419.79" y2="488.12">
    <stop offset="0" stop-opacity="1" stop-color="#044E00"/>
    <stop offset="0.478431" stop-opacity="1" stop-color="#119800"/>
    <stop offset="1" stop-opacity="1" stop-color="#37ED0D"/>
   </linearGradient>
   <linearGradient id="id85" gradientUnits="userSpaceOnUse" x1="277.03" y1="564.12" x2="284.04" y2="509.9">
    <stop offset="0" stop-opacity="1" stop-color="#044E00"/>
    <stop offset="0.478431" stop-opacity="1" stop-color="#119800"/>
    <stop offset="1" stop-opacity="1" stop-color="#37ED0D"/>
   </linearGradient>
   <linearGradient id="id86" gradientUnits="userSpaceOnUse" x1="239.52" y1="102.04" x2="258.84" y2="149.8">
    <stop offset="0" stop-opacity="1" stop-color="#044E00"/>
    <stop offset="0.478431" stop-opacity="1" stop-color="#119800"/>
    <stop offset="1" stop-opacity="1" stop-color="#37ED0D"/>
   </linearGradient>
   <linearGradient id="id87" gradientUnits="userSpaceOnUse" x1="405.38" y1="103.15" x2="389.7" y2="152.39">
    <stop offset="0" stop-opacity="1" stop-color="#044E00"/>
    <stop offset="0.478431" stop-opacity="1" stop-color="#119800"/>
    <stop offset="1" stop-opacity="1" stop-color="#37ED0D"/>
   </linearGradient>
   <linearGradient id="id88" gradientUnits="userSpaceOnUse" x1="322.27" y1="84.05" x2="324.03" y2="139.95">
    <stop offset="0" stop-opacity="1" stop-color="#044E00"/>
    <stop offset="0.478431" stop-opacity="1" stop-color="#119800"/>
    <stop offset="1" stop-opacity="1" stop-color="#37ED0D"/>
   </linearGradient>
   <linearGradient id="id89" gradientUnits="userSpaceOnUse" x1="484.99" y1="150.74" x2="452.38" y2="189.24">
    <stop offset="0" stop-opacity="1" stop-color="#044E00"/>
    <stop offset="0.478431" stop-opacity="1" stop-color="#119800"/>
    <stop offset="1" stop-opacity="1" stop-color="#37ED0D"/>
   </linearGradient>
   <linearGradient id="id90" gradientUnits="userSpaceOnUse" x1="512.68" y1="472.87" x2="472.94" y2="441.15">
    <stop offset="0" stop-opacity="1" stop-color="#044E00"/>
    <stop offset="0.478431" stop-opacity="1" stop-color="#119800"/>
    <stop offset="1" stop-opacity="1" stop-color="#37ED0D"/>
   </linearGradient>
   <linearGradient id="id91" gradientUnits="userSpaceOnUse" x1="554.68" y1="396.22" x2="503.43" y2="382.43">
    <stop offset="0" stop-opacity="1" stop-color="#044E00"/>
    <stop offset="0.478431" stop-opacity="1" stop-color="#119800"/>
    <stop offset="1" stop-opacity="1" stop-color="#37ED0D"/>
   </linearGradient>
   <linearGradient id="id92" gradientUnits="userSpaceOnUse" x1="565.56" y1="311.12" x2="511.11" y2="315.18">
    <stop offset="0" stop-opacity="1" stop-color="#044E00"/>
    <stop offset="0.478431" stop-opacity="1" stop-color="#119800"/>
    <stop offset="1" stop-opacity="1" stop-color="#37ED0D"/>
   </linearGradient>
   <linearGradient id="id93" gradientUnits="userSpaceOnUse" x1="539.42" y1="226.37" x2="493.38" y2="247.16">
    <stop offset="0" stop-opacity="1" stop-color="#044E00"/>
    <stop offset="0.478431" stop-opacity="1" stop-color="#119800"/>
    <stop offset="1" stop-opacity="1" stop-color="#37ED0D"/>
   </linearGradient>
   <linearGradient id="id94" gradientUnits="userSpaceOnUse" x1="197.02" y1="528.24" x2="222.84" y2="484.27">
    <stop offset="0" stop-opacity="1" stop-color="#044E00"/>
    <stop offset="0.478431" stop-opacity="1" stop-color="#119800"/>
    <stop offset="1" stop-opacity="1" stop-color="#37ED0D"/>
   </linearGradient>
   <linearGradient id="id95" gradientUnits="userSpaceOnUse" x1="135.26" y1="469.63" x2="174.51" y2="437.8">
    <stop offset="0" stop-opacity="1" stop-color="#044E00"/>
    <stop offset="0.478431" stop-opacity="1" stop-color="#119800"/>
    <stop offset="1" stop-opacity="1" stop-color="#37ED0D"/>
   </linearGradient>
   <linearGradient id="id96" gradientUnits="userSpaceOnUse" x1="94.86" y1="384.52" x2="145.56" y2="371.22">
    <stop offset="0" stop-opacity="1" stop-color="#044E00"/>
    <stop offset="0.478431" stop-opacity="1" stop-color="#119800"/>
    <stop offset="1" stop-opacity="1" stop-color="#37ED0D"/>
   </linearGradient>
   <linearGradient id="id97" gradientUnits="userSpaceOnUse" x1="84.59" y1="301.02" x2="140.16" y2="304.26">
    <stop offset="0" stop-opacity="1" stop-color="#044E00"/>
    <stop offset="0.478431" stop-opacity="1" stop-color="#119800"/>
    <stop offset="1" stop-opacity="1" stop-color="#37ED0D"/>
   </linearGradient>
   <linearGradient id="id98" gradientUnits="userSpaceOnUse" x1="111.88" y1="219.18" x2="158.1" y2="241.04">
    <stop offset="0" stop-opacity="1" stop-color="#044E00"/>
    <stop offset="0.478431" stop-opacity="1" stop-color="#119800"/>
    <stop offset="1" stop-opacity="1" stop-color="#37ED0D"/>
   </linearGradient>
   <linearGradient id="id99" gradientUnits="userSpaceOnUse" x1="165.72" y1="149.23" x2="199.33" y2="186.79">
    <stop offset="0" stop-opacity="1" stop-color="#044E00"/>
    <stop offset="0.478431" stop-opacity="1" stop-color="#119800"/>
    <stop offset="1" stop-opacity="1" stop-color="#37ED0D"/>
   </linearGradient>
   <linearGradient id="id100" gradientUnits="userSpaceOnUse" x1="362.06" y1="580.75" x2="348.03" y2="501.27">
    <stop offset="0" stop-opacity="1" stop-color="#BEF74B"/>
    <stop offset="0.258824" stop-opacity="1" stop-color="#64CA38"/>
    <stop offset="1" stop-opacity="1" stop-color="#8BFD4A"/>
   </linearGradient>
   <linearGradient id="id101" gradientUnits="userSpaceOnUse" x1="359.21" y1="563.58" x2="348.99" y2="511.44">
    <stop offset="0" stop-opacity="1" stop-color="#044E00"/>
    <stop offset="0.478431" stop-opacity="1" stop-color="#119800"/>
    <stop offset="1" stop-opacity="1" stop-color="#37ED0D"/>
   </linearGradient>
   <linearGradient id="id102" gradientUnits="userSpaceOnUse" x1="392.69" y1="537.81" x2="374.38" y2="471.13">
    <stop offset="0" stop-opacity="1" stop-color="#BEF74B"/>
    <stop offset="0.258824" stop-opacity="1" stop-color="#64CA38"/>
    <stop offset="1" stop-opacity="1" stop-color="#8BFD4A"/>
   </linearGradient>
   <linearGradient id="id103" gradientUnits="userSpaceOnUse" x1="241" y1="533.43" x2="263.05" y2="468.09">
    <stop offset="0" stop-opacity="1" stop-color="#BEF74B"/>
    <stop offset="0.258824" stop-opacity="1" stop-color="#64CA38"/>
    <stop offset="1" stop-opacity="1" stop-color="#8BFD4A"/>
   </linearGradient>
   <linearGradient id="id104" gradientUnits="userSpaceOnUse" x1="286.37" y1="104.31" x2="299.92" y2="174.07">
    <stop offset="0" stop-opacity="1" stop-color="#BEF74B"/>
    <stop offset="0.258824" stop-opacity="1" stop-color="#64CA38"/>
    <stop offset="1" stop-opacity="1" stop-color="#8BFD4A"/>
   </linearGradient>
   <linearGradient id="id105" gradientUnits="userSpaceOnUse" x1="440.59" y1="139.43" x2="408.47" y2="198.34">
    <stop offset="0" stop-opacity="1" stop-color="#BEF74B"/>
    <stop offset="0.258824" stop-opacity="1" stop-color="#64CA38"/>
    <stop offset="1" stop-opacity="1" stop-color="#8BFD4A"/>
   </linearGradient>
   <linearGradient id="id106" gradientUnits="userSpaceOnUse" x1="363.23" y1="106.12" x2="354.71" y2="176.56">
    <stop offset="0" stop-opacity="1" stop-color="#BEF74B"/>
    <stop offset="0.258824" stop-opacity="1" stop-color="#64CA38"/>
    <stop offset="1" stop-opacity="1" stop-color="#8BFD4A"/>
   </linearGradient>
   <linearGradient id="id107" gradientUnits="userSpaceOnUse" x1="502.36" y1="194.67" x2="451.35" y2="238.48">
    <stop offset="0" stop-opacity="1" stop-color="#BEF74B"/>
    <stop offset="0.258824" stop-opacity="1" stop-color="#64CA38"/>
    <stop offset="1" stop-opacity="1" stop-color="#8BFD4A"/>
   </linearGradient>
   <linearGradient id="id108" gradientUnits="userSpaceOnUse" x1="469.22" y1="493.56" x2="426.13" y2="442.06">
    <stop offset="0" stop-opacity="1" stop-color="#BEF74B"/>
    <stop offset="0.258824" stop-opacity="1" stop-color="#64CA38"/>
    <stop offset="1" stop-opacity="1" stop-color="#8BFD4A"/>
   </linearGradient>
   <linearGradient id="id109" gradientUnits="userSpaceOnUse" x1="520.51" y1="431.52" x2="461.57" y2="399.73">
    <stop offset="0" stop-opacity="1" stop-color="#BEF74B"/>
    <stop offset="0.258824" stop-opacity="1" stop-color="#64CA38"/>
    <stop offset="1" stop-opacity="1" stop-color="#8BFD4A"/>
   </linearGradient>
   <linearGradient id="id110" gradientUnits="userSpaceOnUse" x1="550.07" y1="353.81" x2="477.32" y2="346.25">
    <stop offset="0" stop-opacity="1" stop-color="#BEF74B"/>
    <stop offset="0.258824" stop-opacity="1" stop-color="#64CA38"/>
    <stop offset="1" stop-opacity="1" stop-color="#8BFD4A"/>
   </linearGradient>
   <linearGradient id="id111" gradientUnits="userSpaceOnUse" x1="541.33" y1="275.96" x2="473.12" y2="290.28">
    <stop offset="0" stop-opacity="1" stop-color="#BEF74B"/>
    <stop offset="0.258824" stop-opacity="1" stop-color="#64CA38"/>
    <stop offset="1" stop-opacity="1" stop-color="#8BFD4A"/>
   </linearGradient>
   <linearGradient id="id112" gradientUnits="userSpaceOnUse" x1="173.23" y1="486.37" x2="219.75" y2="437.55">
    <stop offset="0" stop-opacity="1" stop-color="#BEF74B"/>
    <stop offset="0.258824" stop-opacity="1" stop-color="#64CA38"/>
    <stop offset="1" stop-opacity="1" stop-color="#8BFD4A"/>
   </linearGradient>
   <linearGradient id="id113" gradientUnits="userSpaceOnUse" x1="125.92" y1="419.28" x2="186.66" y2="390.32">
    <stop offset="0" stop-opacity="1" stop-color="#BEF74B"/>
    <stop offset="0.258824" stop-opacity="1" stop-color="#64CA38"/>
    <stop offset="1" stop-opacity="1" stop-color="#8BFD4A"/>
   </linearGradient>
   <linearGradient id="id114" gradientUnits="userSpaceOnUse" x1="101.34" y1="339.03" x2="173.54" y2="335.18">
    <stop offset="0" stop-opacity="1" stop-color="#BEF74B"/>
    <stop offset="0.258824" stop-opacity="1" stop-color="#64CA38"/>
    <stop offset="1" stop-opacity="1" stop-color="#8BFD4A"/>
   </linearGradient>
   <linearGradient id="id115" gradientUnits="userSpaceOnUse" x1="111.2" y1="262.5" x2="179.26" y2="279.47">
    <stop offset="0" stop-opacity="1" stop-color="#BEF74B"/>
    <stop offset="0.258824" stop-opacity="1" stop-color="#64CA38"/>
    <stop offset="1" stop-opacity="1" stop-color="#8BFD4A"/>
   </linearGradient>
   <linearGradient id="id116" gradientUnits="userSpaceOnUse" x1="151.86" y1="189.98" x2="203.77" y2="232.59">
    <stop offset="0" stop-opacity="1" stop-color="#BEF74B"/>
    <stop offset="0.258824" stop-opacity="1" stop-color="#64CA38"/>
    <stop offset="1" stop-opacity="1" stop-color="#8BFD4A"/>
   </linearGradient>
   <linearGradient id="id117" gradientUnits="userSpaceOnUse" x1="214.72" y1="135.64" x2="247.26" y2="194.31">
    <stop offset="0" stop-opacity="1" stop-color="#BEF74B"/>
    <stop offset="0.258824" stop-opacity="1" stop-color="#64CA38"/>
    <stop offset="1" stop-opacity="1" stop-color="#8BFD4A"/>
   </linearGradient>
   <linearGradient id="id118" gradientUnits="userSpaceOnUse" x1="389.26" y1="523.62" x2="376.56" y2="480.29">
    <stop offset="0" stop-opacity="1" stop-color="#044E00"/>
    <stop offset="0.478431" stop-opacity="1" stop-color="#119800"/>
    <stop offset="1" stop-opacity="1" stop-color="#37ED0D"/>
   </linearGradient>
   <linearGradient id="id119" gradientUnits="userSpaceOnUse" x1="245.93" y1="519.5" x2="260.14" y2="476.37">
    <stop offset="0" stop-opacity="1" stop-color="#044E00"/>
    <stop offset="0.478431" stop-opacity="1" stop-color="#119800"/>
    <stop offset="1" stop-opacity="1" stop-color="#37ED0D"/>
   </linearGradient>
   <linearGradient id="id120" gradientUnits="userSpaceOnUse" x1="289.49" y1="119.29" x2="297.91" y2="165.37">
    <stop offset="0" stop-opacity="1" stop-color="#044E00"/>
    <stop offset="0.478431" stop-opacity="1" stop-color="#119800"/>
    <stop offset="1" stop-opacity="1" stop-color="#37ED0D"/>
   </linearGradient>
   <linearGradient id="id121" gradientUnits="userSpaceOnUse" x1="433.41" y1="151.74" x2="412.01" y2="189.66">
    <stop offset="0" stop-opacity="1" stop-color="#044E00"/>
    <stop offset="0.478431" stop-opacity="1" stop-color="#119800"/>
    <stop offset="1" stop-opacity="1" stop-color="#37ED0D"/>
   </linearGradient>
   <linearGradient id="id122" gradientUnits="userSpaceOnUse" x1="361.57" y1="121.39" x2="355.12" y2="167.59">
    <stop offset="0" stop-opacity="1" stop-color="#044E00"/>
    <stop offset="0.478431" stop-opacity="1" stop-color="#119800"/>
    <stop offset="1" stop-opacity="1" stop-color="#37ED0D"/>
   </linearGradient>
   <linearGradient id="id123" gradientUnits="userSpaceOnUse" x1="491.48" y1="203.94" x2="457.55" y2="232.04">
    <stop offset="0" stop-opacity="1" stop-color="#044E00"/>
    <stop offset="0.478431" stop-opacity="1" stop-color="#119800"/>
    <stop offset="1" stop-opacity="1" stop-color="#37ED0D"/>
   </linearGradient>
   <linearGradient id="id124" gradientUnits="userSpaceOnUse" x1="460.14" y1="482.92" x2="431.24" y2="450.01">
    <stop offset="0" stop-opacity="1" stop-color="#044E00"/>
    <stop offset="0.478431" stop-opacity="1" stop-color="#119800"/>
    <stop offset="1" stop-opacity="1" stop-color="#37ED0D"/>
   </linearGradient>
   <linearGradient id="id125" gradientUnits="userSpaceOnUse" x1="507.92" y1="424.57" x2="468.89" y2="403.65">
    <stop offset="0" stop-opacity="1" stop-color="#044E00"/>
    <stop offset="0.478431" stop-opacity="1" stop-color="#119800"/>
    <stop offset="1" stop-opacity="1" stop-color="#37ED0D"/>
   </linearGradient>
   <linearGradient id="id126" gradientUnits="userSpaceOnUse" x1="534.46" y1="351.97" x2="486.61" y2="347.62">
    <stop offset="0" stop-opacity="1" stop-color="#044E00"/>
    <stop offset="0.478431" stop-opacity="1" stop-color="#119800"/>
    <stop offset="1" stop-opacity="1" stop-color="#37ED0D"/>
   </linearGradient>
   <linearGradient id="id127" gradientUnits="userSpaceOnUse" x1="526.63" y1="278.91" x2="481.87" y2="289.21">
    <stop offset="0" stop-opacity="1" stop-color="#044E00"/>
    <stop offset="0.478431" stop-opacity="1" stop-color="#119800"/>
    <stop offset="1" stop-opacity="1" stop-color="#37ED0D"/>
   </linearGradient>
   <linearGradient id="id128" gradientUnits="userSpaceOnUse" x1="182.76" y1="475.97" x2="212.2" y2="443.44">
    <stop offset="0" stop-opacity="1" stop-color="#044E00"/>
    <stop offset="0.478431" stop-opacity="1" stop-color="#119800"/>
    <stop offset="1" stop-opacity="1" stop-color="#37ED0D"/>
   </linearGradient>
   <linearGradient id="id129" gradientUnits="userSpaceOnUse" x1="138.64" y1="412.99" x2="177.78" y2="393.57">
    <stop offset="0" stop-opacity="1" stop-color="#044E00"/>
    <stop offset="0.478431" stop-opacity="1" stop-color="#119800"/>
    <stop offset="1" stop-opacity="1" stop-color="#37ED0D"/>
   </linearGradient>
   <linearGradient id="id130" gradientUnits="userSpaceOnUse" x1="117.07" y1="338.39" x2="164.44" y2="335.07">
    <stop offset="0" stop-opacity="1" stop-color="#044E00"/>
    <stop offset="0.478431" stop-opacity="1" stop-color="#119800"/>
    <stop offset="1" stop-opacity="1" stop-color="#37ED0D"/>
   </linearGradient>
   <linearGradient id="id131" gradientUnits="userSpaceOnUse" x1="125.79" y1="266.35" x2="170.86" y2="277.09">
    <stop offset="0" stop-opacity="1" stop-color="#044E00"/>
    <stop offset="0.478431" stop-opacity="1" stop-color="#119800"/>
    <stop offset="1" stop-opacity="1" stop-color="#37ED0D"/>
   </linearGradient>
   <linearGradient id="id132" gradientUnits="userSpaceOnUse" x1="162.94" y1="199.17" x2="197.46" y2="226.72">
    <stop offset="0" stop-opacity="1" stop-color="#044E00"/>
    <stop offset="0.478431" stop-opacity="1" stop-color="#119800"/>
    <stop offset="1" stop-opacity="1" stop-color="#37ED0D"/>
   </linearGradient>
   <linearGradient id="id133" gradientUnits="userSpaceOnUse" x1="222.03" y1="147.89" x2="243.69" y2="185.66">
    <stop offset="0" stop-opacity="1" stop-color="#044E00"/>
    <stop offset="0.478431" stop-opacity="1" stop-color="#119800"/>
    <stop offset="1" stop-opacity="1" stop-color="#37ED0D"/>
   </linearGradient>
   <linearGradient id="id134" gradientUnits="userSpaceOnUse" x1="315.91" y1="552.74" x2="315.84" y2="479.14">
    <stop offset="0" stop-opacity="1" stop-color="#BEF74B"/>
    <stop offset="0.258824" stop-opacity="1" stop-color="#64CA38"/>
    <stop offset="1" stop-opacity="1" stop-color="#8BFD4A"/>
   </linearGradient>
   <linearGradient id="id135" gradientUnits="userSpaceOnUse" x1="316.09" y1="536.65" x2="315.31" y2="488.33">
    <stop offset="0" stop-opacity="1" stop-color="#044E00"/>
    <stop offset="0.478431" stop-opacity="1" stop-color="#119800"/>
    <stop offset="1" stop-opacity="1" stop-color="#37ED0D"/>
   </linearGradient>
 </defs>
 <g id="Layer_x0020_1">
  <metadata id="CorelCorpID_0Corel-Layer"/>
  <path fill="url(#id0)" d="M574.47 523.3c10.07,-13.81 -7.75,-83.85 -41.45,-83.32 -14.8,0.24 -27.79,7.85 -36.82,19.34 -10.85,13.83 -18.36,33.86 -8.9,48.94 14.62,23.29 75.47,30.15 87.17,15.04z"/>
  <path fill="url(#id1)" d="M381.6 639.12c16.42,-4.75 45.2,-71.04 18.23,-91.26 -11.84,-8.87 -26.77,-10.81 -40.95,-7.24 -17.04,4.28 -35.24,15.52 -36.99,33.24 -2.71,27.36 41.21,70.04 59.71,65.26z"/>
  <path fill="url(#id2)" d="M110.43 92.38c12.89,-11.22 84.2,0.53 86.56,34.15 1.04,14.75 -5.43,28.36 -16.11,38.34 -12.84,12 -32.15,21.2 -47.99,13.07 -24.46,-12.57 -36.51,-72.61 -22.46,-85.56z"/>
  <path fill="url(#id3)" d="M323.12 10.51c17.08,0.41 61.8,57.18 40.87,83.6 -9.19,11.59 -23.14,17.27 -37.75,17.44 -17.58,0.2 -38.04,-6.04 -44.25,-22.72 -9.58,-25.78 22.01,-78.23 41.13,-78.32z"/>
  <path fill="url(#id4)" d="M209.11 31.94c16.07,-5.8 78.33,30.91 68.39,63.11 -4.36,14.14 -15.3,24.48 -28.87,29.93 -16.3,6.56 -37.64,8.16 -49.46,-5.14 -18.28,-20.55 -7.83,-80.89 9.94,-87.9z"/>
  <path fill="url(#id5)" d="M437.66 31.3c15.79,6.55 36.99,75.65 7.93,92.72 -12.75,7.5 -27.81,7.76 -41.5,2.63 -16.46,-6.16 -33.29,-19.37 -33.05,-37.16 0.36,-27.5 48.78,-65.01 66.62,-58.19z"/>
  <path fill="url(#id6)" d="M628.32 417.2c3.68,-16.69 -40.76,-73.68 -71.42,-59.66 -13.45,6.15 -22.29,18.33 -25.95,32.49 -4.39,17.02 -3.22,38.37 11.49,48.39 22.74,15.47 81.23,-2.69 85.88,-21.22z"/>
  <path fill="url(#id7)" d="M640.13 302.89c-2.34,-16.93 -63.8,-54.96 -87.68,-31.18 -10.48,10.43 -14.55,24.94 -13.07,39.48 1.78,17.48 10.29,37.11 27.57,41.39 26.69,6.62 75.25,-30.7 73.18,-49.69z"/>
  <path fill="url(#id8)" d="M609.24 187.63c-8.52,-14.81 -79.77,-26.97 -92.97,4.03 -5.8,13.61 -4.12,28.58 2.71,41.5 8.23,15.54 23.48,30.53 41.1,28.01 27.22,-3.89 58.21,-56.71 49.16,-73.54z"/>
  <path fill="url(#id9)" d="M539 94.38c-13.19,-10.87 -84.16,2.76 -85.63,36.43 -0.65,14.78 6.17,28.2 17.11,37.9 13.16,11.66 32.7,20.34 48.32,11.79 24.12,-13.2 34.58,-73.54 20.2,-86.12z"/>
  <path fill="url(#id10)" d="M265.28 638.25c17.02,1.52 67.87,-49.84 50.06,-78.45 -7.82,-12.55 -21.04,-19.77 -35.55,-21.59 -17.44,-2.18 -38.47,1.7 -46.52,17.58 -12.44,24.53 13.03,80.22 32.01,82.46z"/>
  <path fill="url(#id11)" d="M159.4 596.99c15.32,7.56 81.29,-21.97 75.01,-55.08 -2.76,-14.53 -12.48,-26.04 -25.35,-32.97 -15.47,-8.33 -36.49,-12.31 -49.73,-0.41 -20.46,18.38 -16.82,79.51 0.07,88.46z"/>
  <path fill="url(#id12)" d="M72.47 516.95c11.19,12.92 83.44,11.28 90.49,-21.67 3.1,-14.47 -1.4,-28.84 -10.57,-40.22 -11.03,-13.69 -28.87,-25.5 -45.68,-19.67 -25.99,9.01 -46.34,66.77 -34.24,81.56z"/>
  <path fill="url(#id13)" d="M20.95 413.7c6.08,15.97 74.51,39.22 92.44,10.68 7.87,-12.53 8.58,-27.57 3.86,-41.41 -5.67,-16.64 -18.37,-33.85 -36.16,-34.14 -27.5,-0.45 -66.43,46.83 -60.14,64.87z"/>
  <path fill="url(#id14)" d="M9.81 297.3c-0.34,17.09 54.39,64.29 81.7,44.56 11.99,-8.67 18.28,-22.35 19.11,-36.95 0.97,-17.54 -4.35,-38.26 -20.74,-45.2 -25.32,-10.73 -79.13,18.51 -80.07,37.59z"/>
  <path fill="url(#id15)" d="M40.92 184.42c-6.71,15.72 26.41,79.96 59.12,71.86 14.36,-3.55 25.31,-13.89 31.53,-27.12 7.46,-15.91 10.27,-37.12 -2.33,-49.68 -19.48,-19.41 -80.32,-12.41 -88.32,4.94z"/>
  <path fill="url(#id16)" d="M567.76 519.19c7.84,-11.66 -5.4,-72.27 -34.03,-74.81 -12.87,-1.13 -26.57,8.79 -34.21,17.95 -9.18,11 -17.02,30.36 -8.11,43.12 13.23,18.94 66.89,25.97 76.35,13.74z"/>
  <path fill="url(#id17)" d="M378.81 631.76c13.34,-4.41 39.98,-60.45 18.89,-79.98 -9.48,-8.78 -26.39,-9.32 -38.04,-6.75 -13.99,3.07 -32.04,13.59 -32.8,29.12 -1.14,23.08 36.98,61.48 51.95,57.61z"/>
  <path fill="url(#id18)" d="M115.09 98.7c10.95,-8.81 72.47,-0.81 77.46,27.5 2.23,12.73 -6.48,27.22 -14.95,35.62 -10.17,10.09 -28.79,19.56 -42.26,11.78 -20.01,-11.56 -31.61,-64.41 -20.25,-74.9z"/>
  <path fill="url(#id19)" d="M322.29 18.33c14.02,0.88 54.05,48.28 38.64,72.54 -6.93,10.9 -23.15,15.73 -35.06,16.21 -14.32,0.59 -34.45,-4.98 -39.14,-19.8 -6.98,-22.03 20.1,-68.88 35.56,-68.95z"/>
  <path fill="url(#id20)" d="M211.18 39.53c13.39,-4.26 67.87,25.41 62.29,53.6 -2.5,12.68 -15.87,23.06 -26.8,27.83 -13.12,5.73 -33.9,7.84 -43.66,-4.28 -14.48,-18 -6.21,-71.48 8.17,-77.15z"/>
  <path fill="url(#id21)" d="M434.07 38.3c12.76,5.88 32.97,64.54 9.84,81.59 -10.41,7.67 -27.27,6.31 -38.55,2.47 -13.56,-4.63 -30.33,-17.09 -29.35,-32.62 1.45,-23.05 43.62,-56.96 58.06,-51.44z"/>
  <path fill="url(#id22)" d="M620.53 416.13c2.49,-13.82 -33.97,-64.02 -61.2,-54.85 -12.25,4.13 -20.81,18.72 -24.14,30.17 -3.99,13.76 -3.39,34.64 9.89,42.75 19.72,12.03 71.68,-3.08 75.45,-18.07z"/>
  <path fill="url(#id23)" d="M632.45 304.58c-2.46,-13.83 -54.07,-48.25 -76.44,-30.2 -10.05,8.12 -13.01,24.78 -12.15,36.67 1.03,14.29 8.83,33.67 24.1,36.66 22.67,4.44 66.16,-27.76 64.49,-43.13z"/>
  <path fill="url(#id24)" d="M602.76 192.09c-7.47,-11.89 -68.23,-24.42 -82.18,0.71 -6.27,11.3 -2.76,27.85 2.5,38.55 6.32,12.86 20.83,27.88 36.1,24.92 22.69,-4.39 50.91,-50.56 43.58,-64.18z"/>
  <path fill="url(#id25)" d="M534.5 100.83c-11.18,-8.51 -72.47,1.1 -76.7,29.53 -1.9,12.78 7.2,27.05 15.88,35.22 10.44,9.81 29.3,18.78 42.56,10.66 19.7,-12.08 29.9,-65.23 18.26,-75.41z"/>
  <path fill="url(#id26)" d="M265.34 630.39c14.03,0.71 59.16,-41.86 46.59,-67.71 -5.66,-11.62 -21.22,-18.25 -33.01,-20.08 -14.15,-2.19 -34.78,1.06 -41.13,15.27 -9.42,21.09 12.2,70.7 27.55,72.52z"/>
  <path fill="url(#id27)" d="M162.3 589.68c12.83,5.73 70.28,-17.68 67.89,-46.32 -1.08,-12.88 -13.2,-24.68 -23.52,-30.64 -12.41,-7.17 -32.82,-11.58 -43.87,-0.62 -16.4,16.26 -14.17,70.34 -0.5,77.58z"/>
  <path fill="url(#id28)" d="M77.98 511.35c9.6,10.25 71.63,10.96 80.54,-16.37 4,-12.29 -2.6,-27.87 -9.81,-37.37 -8.66,-11.41 -25.76,-23.39 -40.19,-17.58 -21.43,8.63 -40.33,59.35 -30.54,71.32z"/>
  <path fill="url(#id29)" d="M28.05 410.32c5.5,12.92 63.53,34.87 81.26,12.25 7.98,-10.17 7.13,-27.07 3.61,-38.46 -4.21,-13.69 -16.17,-30.82 -31.72,-30.31 -23.09,0.77 -58.24,41.92 -53.15,56.52z"/>
  <path fill="url(#id30)" d="M17.66 296.83c0.26,14.04 45.83,56.14 70.75,41.82 11.2,-6.44 16.75,-22.42 17.76,-34.3 1.22,-14.28 -3.44,-34.63 -18.05,-39.99 -21.69,-7.95 -69.7,17.03 -70.46,32.47z"/>
  <path fill="url(#id31)" d="M48.37 186.92c-5.01,13.12 21.52,69.2 49.99,65.23 12.8,-1.78 23.91,-14.54 29.3,-25.18 6.47,-12.77 9.75,-33.4 -1.8,-43.83 -17.15,-15.48 -71.01,-10.26 -77.49,3.78z"/>
  <path fill="url(#id32)" d="M488.71 598.26c13.6,-10.36 16.49,-82.57 -15.95,-91.68 -14.24,-4 -28.87,-0.41 -40.8,8.03 -14.35,10.15 -27.26,27.21 -22.5,44.36 7.36,26.5 63.73,50.43 79.25,39.29z"/>
  <path fill="url(#id33)" d="M483.46 592.41c10.84,-8.94 15.44,-70.81 -11.28,-81.41 -12.01,-4.76 -27.97,0.85 -37.91,7.44 -11.93,7.92 -24.96,24.24 -20.07,39.01 7.28,21.93 56.7,43.98 69.26,34.96z"/>
  <path fill="url(#id34)" d="M522.54 555.76c11.92,-11.04 8.1,-79.66 -23.45,-85.33 -13.84,-2.49 -27.36,2.24 -37.89,11.31 -12.66,10.92 -23.33,28.24 -17.26,44.04 9.37,24.42 64.92,41.95 78.6,29.98z"/>
  <path fill="url(#id35)" d="M321.36 628.58c16.19,-1.43 55.18,-58.04 33.7,-81.83 -9.42,-10.45 -23.01,-14.99 -36.88,-14.25 -16.7,0.88 -35.74,8.04 -40.61,24.25 -7.54,25.04 25.65,72.91 43.79,71.83z"/>
  <path fill="url(#id36)" d="M168.29 68.73c14.08,-8.12 78.48,15.9 74.54,47.7 -1.74,13.96 -10.26,25.48 -22.05,32.83 -14.18,8.86 -33.88,13.91 -47.17,3.42 -20.54,-16.19 -20.8,-74.44 -5.32,-83.95z"/>
  <path fill="url(#id37)" d="M381.76 31.23c15.86,3.51 47.22,64.67 22.85,85.49 -10.69,9.14 -24.75,11.89 -38.42,9.37 -16.44,-3.02 -34.39,-12.59 -37.14,-29.29 -4.23,-25.81 34.86,-68.99 52.71,-65.57z"/>
  <path fill="url(#id38)" d="M271.44 30.38c16.07,-2.49 67.45,43.16 52.28,71.4 -6.65,12.39 -18.76,20.05 -32.42,22.66 -16.41,3.13 -36.61,0.72 -45.22,-13.85 -13.29,-22.53 7.49,-76.93 25.36,-80.21z"/>
  <path fill="url(#id39)" d="M484.86 71.58c13.53,9.01 20.67,77.37 -9.56,87.99 -13.28,4.65 -27.38,2.14 -39.22,-5.14 -14.23,-8.76 -27.53,-24.17 -24.05,-40.73 5.38,-25.6 57.42,-51.75 72.83,-42.12z"/>
  <path fill="url(#id40)" d="M592.2 466.6c6.49,-14.9 -24.57,-76.22 -55.73,-68.75 -13.68,3.28 -24.17,13.04 -30.17,25.58 -7.21,15.08 -10.03,35.23 1.87,47.26 18.39,18.6 76.3,12.36 84.03,-4.09z"/>
  <path fill="url(#id41)" d="M624.13 362.07c0.91,-16.22 -49.49,-62.96 -76.12,-45.13 -11.69,7.82 -18.14,20.61 -19.42,34.45 -1.53,16.65 2.82,36.52 18.16,43.68 23.7,11.06 75.84,-14.89 77.38,-33z"/>
  <path fill="url(#id42)" d="M616.38 248.86c-5.24,-15.38 -69.5,-39.76 -87.5,-13.24 -7.89,11.64 -9.07,25.92 -5.06,39.22 4.84,16 16.33,32.79 33.23,33.66 26.12,1.35 64.7,-42.28 59.33,-59.64z"/>
  <path fill="url(#id43)" d="M567.89 148.99c-10.32,-12.56 -79.05,-12.82 -86.58,18.33 -3.31,13.67 0.61,27.45 9.04,38.5 10.14,13.29 26.8,24.97 42.93,19.85 24.93,-7.91 45.74,-62.31 34.61,-76.68z"/>
  <path fill="url(#id44)" d="M212.96 606.49c15.6,4.54 72.45,-34.09 61.06,-64.05 -5,-13.15 -16.01,-22.31 -29.22,-26.65 -15.87,-5.23 -36.22,-5.45 -46.63,7.89 -16.1,20.61 -2.51,77.24 14.79,82.81z"/>
  <path fill="url(#id45)" d="M121.69 548.61c12.92,9.87 79.88,-5.63 80.08,-37.68 0.08,-14.06 -6.88,-26.58 -17.62,-35.4 -12.92,-10.61 -31.81,-18.16 -46.34,-9.49 -22.46,13.42 -30.24,71.13 -16.12,82.57z"/>
  <path fill="url(#id46)" d="M55.2 458.03c8.08,14.1 75.82,25.78 88.42,-3.68 5.54,-12.94 3.97,-27.18 -2.51,-39.48 -7.79,-14.78 -22.27,-29.07 -39.04,-26.7 -25.89,3.65 -55.45,53.84 -46.87,69.86z"/>
  <path fill="url(#id47)" d="M26.01 352.24c2.75,16.02 62.37,50.22 84.32,26.87 9.63,-10.25 13.04,-24.16 11.18,-37.94 -2.25,-16.56 -10.96,-34.95 -27.51,-38.48 -25.58,-5.44 -70.56,31.56 -67.99,49.55z"/>
  <path fill="url(#id48)" d="M36.9 241.57c-3.45,15.88 39,69.95 68.1,56.52 12.78,-5.89 21.15,-17.5 24.59,-30.98 4.12,-16.19 2.94,-36.5 -11.08,-45.98 -21.67,-14.64 -77.24,2.8 -81.61,20.44z"/>
  <path fill="url(#id49)" d="M86.58 141.91c-9.13,13.45 10.02,79.45 42.03,77.88 14.05,-0.69 26.17,-8.33 34.39,-19.55 9.88,-13.47 16.37,-32.75 6.91,-46.78 -14.62,-21.68 -72.69,-26.28 -83.33,-11.55z"/>
  <path fill="url(#id50)" d="M517.03 550.71c9.45,-9.45 8.17,-68.44 -18.08,-76.04 -11.81,-3.42 -26.41,3.34 -35.21,10.49 -10.58,8.59 -21.43,25.22 -15.45,38.76 8.88,20.09 57.67,36.46 68.74,26.79z"/>
  <path fill="url(#id51)" d="M320.1 621.21c13.25,-1.69 48.36,-49.11 32.25,-71.19 -7.24,-9.93 -22.92,-13.53 -34.26,-13.27 -13.61,0.32 -32.38,6.82 -35.94,21.19 -5.28,21.32 23.27,64.14 37.95,63.27z"/>
  <path fill="url(#id52)" d="M171.49 75.49c11.82,-6.22 67.78,12.49 67.25,39.82 -0.24,12.29 -11.03,24.23 -20.46,30.51 -11.34,7.56 -30.45,12.99 -41.6,3.26 -16.56,-14.44 -17.72,-65.89 -5.19,-73.59z"/>
  <path fill="url(#id53)" d="M379.56 38.37c12.92,3.39 41.61,54.95 22.79,74.76 -8.47,8.92 -24.48,10.46 -35.69,8.73 -13.46,-2.07 -31.24,-10.95 -32.91,-25.65 -2.48,-21.83 31.37,-60.6 45.81,-57.84z"/>
  <path fill="url(#id54)" d="M271.98 37.83c13.28,-1.53 58.7,36.13 48.33,61.43 -4.66,11.37 -19.02,18.61 -30.1,21.06 -13.3,2.95 -33.08,1.12 -39.96,-11.98 -10.23,-19.45 7.28,-67.85 21.73,-70.51z"/>
  <path fill="url(#id55)" d="M480.23 77.45c10.82,7.83 18.96,66.27 -5.75,77.95 -11.11,5.26 -26.6,0.91 -36.43,-4.75 -11.81,-6.79 -25.17,-21.49 -21.42,-35.8 5.56,-21.26 51.13,-45.18 63.6,-37.4z"/>
  <path fill="url(#id56)" d="M585.12 464.18c4.86,-12.45 -19.98,-65.97 -47.08,-62.39 -12.19,1.61 -22.85,13.67 -28.04,23.75 -6.24,12.1 -9.5,31.7 1.41,41.7 16.2,14.83 67.46,10.24 73.71,-3.06z"/>
  <path fill="url(#id57)" d="M616.66 362.26c0.23,-13.36 -41.64,-54.93 -65.81,-42.17 -10.87,5.73 -16.69,20.74 -18.06,32 -1.65,13.52 2.09,33.03 15.79,38.61 20.35,8.3 66.82,-13.79 68.08,-28.44z"/>
  <path fill="url(#id58)" d="M609.53 251.84c-4.8,-12.47 -59.22,-35.27 -76.83,-14.37 -7.92,9.4 -7.67,25.49 -4.72,36.44 3.55,13.15 14.34,29.83 29.14,29.86 21.97,0.05 56.75,-37.88 52.41,-51.93z"/>
  <path fill="url(#id59)" d="M562.51 154.18c-8.87,-9.99 -67.83,-12.22 -76.98,13.54 -4.11,11.57 1.77,26.56 8.38,35.76 7.94,11.07 23.91,22.9 37.77,17.74 20.59,-7.67 39.83,-55.41 30.83,-67.04z"/>
  <path fill="url(#id60)" d="M214.45 599.17c12.97,3.23 62.88,-28.25 55.87,-54.67 -3.15,-11.88 -16.47,-20.91 -27.13,-24.77 -12.81,-4.64 -32.66,-5.38 -41.18,6.71 -12.65,17.97 -1.55,68.22 12.44,72.73z"/>
  <path fill="url(#id61)" d="M125.73 542.32c10.93,7.7 68.83,-3.63 71.84,-30.8 1.35,-12.22 -7.81,-25.45 -16.35,-32.9 -10.27,-8.96 -28.52,-16.81 -40.83,-8.61 -18.28,12.18 -26.08,63.06 -14.66,72.31z"/>
  <path fill="url(#id62)" d="M61.37 453.79c7.08,11.33 64.85,23.34 78.16,-0.54 5.98,-10.73 2.67,-26.48 -2.32,-36.66 -5.99,-12.23 -19.76,-26.55 -34.29,-23.76 -21.58,4.13 -48.49,48.01 -41.55,60.96z"/>
  <path fill="url(#id63)" d="M33.25 350.38c2.77,13.07 52.91,44.17 73.61,26.3 9.29,-8.03 11.59,-23.95 10.4,-35.23 -1.43,-13.55 -9.46,-31.72 -24.07,-34.09 -21.69,-3.51 -62.01,28.46 -59.94,43.02z"/>
  <path fill="url(#id64)" d="M44.32 242.57c-2.33,13.15 32.5,60.78 58.37,51.97 11.64,-3.96 19.73,-17.86 22.86,-28.77 3.74,-13.09 3.11,-32.95 -9.54,-40.62 -18.79,-11.38 -68.16,3.15 -71.69,17.42z"/>
  <path fill="url(#id65)" d="M93.08 145.6c-7.07,11.34 7.43,68.53 34.72,70.03 12.27,0.67 24.98,-9.19 31.95,-18.14 8.37,-10.74 15.21,-29.39 6.34,-41.23 -13.17,-17.59 -64.4,-22.57 -73.01,-10.66z"/>
  <path fill="url(#id66)" d="M428.8 610.04c14.58,-7.18 30.49,-74.04 1.88,-88.48 -12.57,-6.33 -26.87,-5.67 -39.55,0.03 -15.25,6.85 -30.42,20.41 -29.11,37.28 2.02,26.08 50.25,58.73 66.78,51.17z"/>
  <path fill="url(#id67)" d="M424.96 603.62c11.75,-6.36 27.36,-63.26 4.37,-78.04 -10.34,-6.64 -26.26,-4.33 -36.74,0.01 -12.59,5.21 -27.74,18.06 -25.87,32.74 2.78,21.79 44.87,51.41 58.24,45.29z"/>
  <path fill="url(#id68)" d="M457.78 551.3c11.84,-7.57 19.08,-66.53 -6.88,-76.17 -11.4,-4.24 -23.62,-2.29 -33.97,3.83 -12.43,7.34 -24.16,20.44 -21.41,34.81 4.24,22.2 48.8,45.61 62.26,37.53z"/>
  <path fill="url(#id69)" d="M275.53 582.45c13.99,1.26 55.81,-40.92 41.19,-64.44 -6.42,-10.32 -17.28,-16.27 -29.2,-17.77 -14.33,-1.8 -31.62,1.38 -38.25,14.42 -10.23,20.15 10.67,65.94 26.26,67.79z"/>
  <path fill="url(#id70)" d="M230.98 82.86c13.22,-4.75 64.32,25.53 56.1,51.97 -3.61,11.61 -12.62,20.1 -23.78,24.56 -13.41,5.36 -30.94,6.64 -40.64,-4.31 -14.99,-16.92 -6.3,-66.5 8.32,-72.22z"/>
  <path fill="url(#id71)" d="M418.28 83.61c12.96,5.41 30.27,62.24 6.36,76.22 -10.49,6.14 -22.87,6.32 -34.12,2.09 -13.51,-5.09 -27.32,-15.97 -27.1,-30.6 0.35,-22.6 40.2,-53.34 54.86,-47.71z"/>
  <path fill="url(#id72)" d="M324.58 66.01c14.04,0.35 50.76,47.04 33.55,68.74 -7.56,9.52 -19.03,14.18 -31.04,14.31 -14.45,0.15 -31.26,-4.99 -36.35,-18.7 -7.87,-21.19 18.14,-64.28 33.84,-64.35z"/>
  <path fill="url(#id73)" d="M499.8 133.71c10.13,9.73 5.75,68.96 -21.59,73.37 -12.01,1.93 -23.62,-2.36 -32.57,-10.37 -10.77,-9.63 -19.72,-24.76 -14.23,-38.32 8.49,-20.95 56.76,-35.23 68.39,-24.68z"/>
  <path fill="url(#id74)" d="M530.67 486.11c7.8,-11.68 -9.23,-68.58 -36.88,-67 -12.14,0.7 -22.55,7.39 -29.57,17.14 -8.44,11.72 -13.92,28.43 -5.64,40.49 12.8,18.63 63.01,22.17 72.09,9.37z"/>
  <path fill="url(#id75)" d="M573.82 402.09c3.26,-13.66 -32.46,-61.12 -57.84,-50.04 -11.15,4.87 -18.58,14.76 -21.79,26.34 -3.84,13.93 -3.18,31.5 8.77,39.93 18.46,13.03 66.78,-1.07 70.86,-16.23z"/>
  <path fill="url(#id76)" d="M584.55 304.62c-2.11,-13.89 -53.03,-44.46 -72.4,-24.66 -8.5,8.7 -11.68,20.66 -10.3,32.59 1.66,14.35 8.87,30.39 23.12,33.72 22,5.14 61.49,-26.07 59.58,-41.65z"/>
  <path fill="url(#id77)" d="M558.58 212.25c-6.85,-12.26 -65.27,-23 -76.45,2.35 -4.9,11.12 -3.68,23.44 1.8,34.13 6.6,12.85 18.98,25.33 33.49,23.44 22.41,-2.91 48.43,-46 41.16,-59.92z"/>
  <path fill="url(#id78)" d="M186.71 547.09c12.58,6.24 66.84,-17.92 61.74,-45.15 -2.24,-11.94 -10.22,-21.41 -20.78,-27.13 -12.7,-6.88 -29.97,-10.18 -40.87,-0.42 -16.84,15.07 -13.95,65.31 -0.09,72.7z"/>
  <path fill="url(#id79)" d="M117.94 483.9c9.48,10.36 68.8,7.43 73.87,-19.8 2.23,-11.96 -1.79,-23.67 -9.57,-32.81 -9.37,-11 -24.27,-20.32 -37.97,-15.16 -21.15,7.98 -36.59,55.88 -26.33,67.77z"/>
  <path fill="url(#id80)" d="M75.24 396.68c4.72,13.23 60.54,33.53 75.77,10.39 6.69,-10.15 7.53,-22.5 3.9,-33.95 -4.37,-13.77 -14.5,-28.14 -29.11,-28.69 -22.59,-0.86 -55.4,37.31 -50.56,52.25z"/>
  <path fill="url(#id81)" d="M66.59 302.23c-0.1,14.05 45.37,52.26 67.61,35.76 9.76,-7.25 14.79,-18.56 15.31,-30.56 0.62,-14.43 -3.97,-31.4 -17.51,-36.93 -20.92,-8.55 -64.83,16.04 -65.41,31.73z"/>
  <path fill="url(#id82)" d="M92.79 209.77c-5.37,12.99 22.47,65.46 49.27,58.5 11.77,-3.06 20.67,-11.66 25.65,-22.6 5.99,-13.14 8.09,-30.59 -2.39,-40.8 -16.19,-15.77 -66.12,-9.43 -72.53,4.9z"/>
  <path fill="url(#id83)" d="M150.29 132.61c-9.83,10.03 -3.64,69.11 23.83,72.67 12.06,1.56 23.53,-3.09 32.24,-11.37 10.46,-9.95 18.94,-25.35 13.03,-38.74 -9.12,-20.68 -57.8,-33.46 -69.1,-22.56z"/>
  <path fill="url(#id84)" d="M453.87 546.15c9.48,-6.59 17.43,-56.96 -3.74,-67.44 -9.52,-4.71 -22.97,-1.2 -31.56,3.54 -10.3,5.68 -22.08,18.17 -19.07,30.6 4.49,18.45 43.48,39.84 54.37,33.3z"/>
  <path fill="url(#id85)" d="M275.59 575.99c11.53,0.59 48.65,-34.37 38.32,-55.62 -4.64,-9.55 -17.42,-15.01 -27.11,-16.52 -11.63,-1.82 -28.59,0.85 -33.81,12.52 -7.75,17.33 9.98,58.12 22.6,59.62z"/>
  <path fill="url(#id86)" d="M232.66 89.09c11.01,-3.48 55.74,21 51.11,44.16 -2.08,10.42 -13.08,18.92 -22.07,22.83 -10.8,4.69 -27.88,6.38 -35.88,-3.59 -11.87,-14.82 -4.99,-58.76 6.84,-63.4z"/>
  <path fill="url(#id87)" d="M415.32 89.35c10.47,4.86 26.98,53.1 7.94,67.08 -8.56,6.28 -22.42,5.15 -31.69,1.96 -11.13,-3.82 -24.89,-14.09 -24.06,-26.84 1.22,-18.95 35.95,-46.75 47.81,-42.2z"/>
  <path fill="url(#id88)" d="M323.9 72.44c11.52,0.73 44.4,39.71 31.71,59.64 -5.7,8.96 -19.03,12.91 -28.82,13.31 -11.77,0.47 -28.31,-4.11 -32.16,-16.3 -5.72,-18.11 16.57,-56.6 29.27,-56.65z"/>
  <path fill="url(#id89)" d="M494.96 137.99c8.01,8.31 6,59.27 -16.81,65.42 -10.26,2.77 -22.77,-3.29 -30.26,-9.61 -9,-7.58 -18.12,-22.13 -12.74,-33.73 7.98,-17.22 50.4,-30.61 59.81,-22.08z"/>
  <path fill="url(#id90)" d="M525.03 482.97c6.03,-9.85 -6.91,-59.16 -30.51,-60.27 -10.61,-0.49 -21.52,8.13 -27.48,15.91 -7.16,9.34 -12.93,25.52 -5.18,35.68 11.51,15.1 55.82,19.04 63.17,8.68z"/>
  <path fill="url(#id91)" d="M567.43 401.1c2.25,-11.32 -27,-53.09 -49.52,-45.93 -10.12,3.22 -17.36,15.09 -20.25,24.45 -3.47,11.25 -3.27,28.42 7.52,35.27 16.04,10.17 58.95,-1.52 62.25,-13.79z"/>
  <path fill="url(#id92)" d="M578.26 306.1c-2.17,-11.34 -44.97,-39.06 -63.14,-23.98 -8.18,6.79 -10.43,20.51 -9.59,30.27 1.01,11.73 7.63,27.56 20.21,29.86 18.68,3.4 54.07,-23.54 52.52,-36.15z"/>
  <path fill="url(#id93)" d="M553.21 215.85c-6.02,-9.86 -55.82,-20.78 -67.55,-0.27 -5.26,9.22 -2.55,22.86 1.66,31.71 5.06,10.62 16.83,23.12 29.41,20.85 18.69,-3.37 42.36,-41.03 36.48,-52.29z"/>
  <path fill="url(#id94)" d="M189.11 541.08c10.53,4.73 57.79,-14.4 55.87,-37.95 -0.87,-10.58 -10.81,-20.31 -19.29,-25.22 -10.18,-5.91 -26.95,-9.57 -36.05,-0.58 -13.51,13.34 -11.75,57.78 -0.53,63.75z"/>
  <path fill="url(#id95)" d="M122.34 479.16c8.11,8.22 59.1,7.44 65.81,-15.21 3.02,-10.18 -2.75,-22.84 -8.88,-30.48 -7.36,-9.19 -21.68,-18.66 -33.4,-13.57 -17.42,7.57 -31.83,49.65 -23.53,59.26z"/>
  <path fill="url(#id96)" d="M81.14 394.02c4.29,10.72 51.59,29.77 66.55,11.5 6.73,-8.22 6.33,-22.12 3.64,-31.54 -3.22,-11.32 -12.74,-25.61 -25.53,-25.46 -18.99,0.22 -48.59,33.42 -44.66,45.5z"/>
  <path fill="url(#id97)" d="M73.04 301.76c0.36,11.54 38.25,45.66 58.58,33.63 9.14,-5.41 13.52,-18.6 14.23,-28.38 0.86,-11.74 -3.19,-28.42 -15.25,-32.67 -17.91,-6.31 -57.1,14.72 -57.56,27.42z"/>
  <path fill="url(#id98)" d="M98.94 211.75c-3.99,10.83 18.35,56.67 41.7,53.14 10.51,-1.59 19.52,-12.18 23.84,-20.97 5.19,-10.57 7.69,-27.55 -1.89,-36.01 -14.24,-12.56 -58.46,-7.76 -63.65,3.84z"/>
  <path fill="url(#id99)" d="M155.25 136.74c-7.75,8.56 -4.16,59.42 18.82,64.87 10.33,2.45 22.65,-4 29.95,-10.54 8.76,-7.86 17.43,-22.67 11.7,-34.1 -8.52,-16.97 -51.32,-29.05 -60.47,-20.23z"/>
  <path fill="url(#id100)" d="M369.75 583.12c13.5,-3.88 37.26,-58.31 15.13,-74.97 -9.71,-7.31 -21.99,-8.93 -33.64,-6.02 -14.02,3.49 -28.99,12.7 -30.46,27.26 -2.27,22.48 33.75,57.63 48.97,53.73z"/>
  <path fill="url(#id101)" d="M367.47 577.07c10.97,-3.61 32.95,-49.62 15.65,-65.7 -7.78,-7.24 -21.67,-7.71 -31.25,-5.62 -11.5,2.51 -26.35,11.12 -27.01,23.89 -0.97,18.96 30.3,50.59 42.61,47.43z"/>
  <path fill="url(#id102)" d="M400.2 540.62c11.36,-4.43 27.55,-53.42 7.07,-66.05 -8.99,-5.55 -19.73,-5.96 -29.58,-2.51 -11.84,4.14 -24.06,13.31 -24.16,26.02 -0.16,19.63 33.82,47.14 46.67,42.54z"/>
  <path fill="url(#id103)" d="M239.64 536.19c11.71,3.45 54.5,-25.37 46.04,-47.9 -3.71,-9.88 -11.95,-16.79 -21.85,-20.09 -11.9,-3.97 -27.17,-4.2 -35.03,5.78 -12.14,15.42 -2.12,57.98 10.84,62.21z"/>
  <path fill="url(#id104)" d="M286.6 103.04c12.06,-1.8 50.45,32.68 38.95,53.81 -5.04,9.28 -14.16,14.98 -24.42,16.87 -12.34,2.29 -27.49,0.4 -33.89,-10.57 -9.9,-16.96 5.92,-57.72 19.36,-60.11z"/>
  <path fill="url(#id105)" d="M446.02 135.51c10.12,6.82 15.21,58.16 -7.53,66.01 -9.99,3.45 -20.56,1.5 -29.42,-4.01 -10.65,-6.64 -20.56,-18.25 -17.89,-30.68 4.14,-19.19 43.31,-38.61 54.84,-31.32z"/>
  <path fill="url(#id106)" d="M369.19 104.6c11.91,2.68 35.25,48.69 16.9,64.25 -8.06,6.83 -18.62,8.85 -28.87,6.91 -12.33,-2.32 -25.78,-9.55 -27.79,-22.1 -3.1,-19.38 26.38,-51.68 39.76,-49.06z"/>
  <path fill="url(#id107)" d="M506.95 192.04c6.98,10.01 -6.82,59.73 -30.86,58.84 -10.56,-0.4 -19.71,-6.03 -25.99,-14.37 -7.53,-10.04 -12.58,-24.44 -5.6,-35.06 10.79,-16.41 54.33,-20.37 62.45,-9.41z"/>
  <path fill="url(#id108)" d="M473.37 497.48c8.62,-8.62 3.78,-59.99 -20.05,-63.34 -10.45,-1.47 -20.46,2.47 -28.1,9.58 -9.18,8.55 -16.69,21.85 -11.68,33.53 7.74,18.04 49.9,29.6 59.83,20.23z"/>
  <path fill="url(#id109)" d="M524.4 433.24c5.09,-11.08 -17.27,-57.58 -40.78,-52.45 -10.31,2.25 -18.33,9.41 -23.03,18.73 -5.64,11.21 -8.07,26.29 0.68,35.5 13.52,14.24 57.07,10.45 63.13,-1.78z"/>
  <path fill="url(#id110)" d="M550.1 352.03c0.57,-12.18 -37.62,-46.88 -57.48,-33.3 -8.72,5.96 -13.46,15.61 -14.31,26.01 -1.03,12.5 2.39,27.39 13.96,32.65 17.87,8.12 56.81,-11.76 57.83,-25.36z"/>
  <path fill="url(#id111)" d="M543.67 268.94c-3.75,-11.61 -51.69,-30.68 -65.51,-11 -6.07,8.65 -7.13,19.35 -4.27,29.38 3.44,12.07 11.86,24.81 24.54,25.67 19.58,1.32 49.07,-30.96 45.24,-44.05z"/>
  <path fill="url(#id112)" d="M169.99 490.97c9.66,7.46 59.99,-3.9 60.26,-27.96 0.13,-10.56 -5.05,-19.98 -13.08,-26.65 -9.65,-8.01 -23.8,-13.76 -34.74,-7.3 -16.91,9.97 -22.99,53.27 -12.44,61.91z"/>
  <path fill="url(#id113)" d="M122.15 425.45c6.31,10.44 57.35,18.03 66.29,-4.3 3.93,-9.81 2.5,-20.47 -2.57,-29.59 -6.11,-10.96 -17.23,-21.42 -29.77,-19.35 -19.37,3.19 -40.67,41.37 -33.95,53.24z"/>
  <path fill="url(#id114)" d="M100.6 343.9c1.77,12.07 45.87,38.85 62.78,21.73 7.42,-7.51 10.24,-17.89 9.09,-28.26 -1.38,-12.47 -7.57,-26.43 -19.92,-29.38 -19.1,-4.57 -53.54,22.36 -51.95,35.91z"/>
  <path fill="url(#id115)" d="M109.28 261.98c-2.47,11.94 29.77,52.23 51.52,41.95 9.55,-4.52 15.75,-13.3 18.23,-23.43 2.99,-12.19 1.96,-27.43 -8.64,-34.44 -16.36,-10.84 -57.95,2.65 -61.11,15.92z"/>
  <path fill="url(#id116)" d="M147.31 187.67c-6.78,10.15 8.02,59.57 32.04,58.2 10.54,-0.61 19.59,-6.42 25.68,-14.88 7.34,-10.19 12.1,-24.7 4.9,-35.17 -11.11,-16.19 -54.72,-19.27 -62.62,-8.15z"/>
  <path fill="url(#id117)" d="M209.4 131.7c-10.07,6.88 -14.83,58.26 7.96,65.96 10.01,3.38 20.57,1.37 29.39,-4.2 10.61,-6.71 20.45,-18.38 17.69,-30.79 -4.26,-19.16 -43.55,-38.33 -55.04,-30.97z"/>
  <path fill="url(#id118)" d="M397.74 535.58c9.19,-4.01 24.51,-45.56 8.27,-58.09 -7.31,-5.63 -19.37,-4.92 -27.48,-2.35 -9.75,3.09 -21.91,11.73 -21.45,22.83 0.68,16.47 30.27,41.32 40.66,37.61z"/>
  <path fill="url(#id119)" d="M240.79 530.7c9.73,2.46 47.28,-21.01 42.11,-40.87 -2.34,-8.93 -12.3,-15.75 -20.3,-18.68 -9.59,-3.52 -24.49,-4.13 -30.93,4.92 -9.54,13.44 -1.37,51.2 9.12,54.63z"/>
  <path fill="url(#id120)" d="M286.97 108.64c9.97,-1.09 43.92,27.36 36.03,46.3 -3.54,8.52 -14.36,13.89 -22.68,15.69 -9.99,2.16 -24.83,0.71 -29.95,-9.15 -7.6,-14.64 5.74,-50.9 16.6,-52.84z"/>
  <path fill="url(#id121)" d="M442.52 139.9c8.1,5.92 13.97,49.82 -4.63,58.49 -8.36,3.9 -19.97,0.57 -27.33,-3.71 -8.83,-5.15 -18.81,-16.23 -15.93,-26.96 4.26,-15.93 38.56,-33.71 47.89,-27.82z"/>
  <path fill="url(#id122)" d="M367.52 109.96c9.7,2.58 31.07,41.37 16.88,56.19 -6.38,6.67 -18.41,7.77 -26.81,6.44 -10.11,-1.6 -23.42,-8.31 -24.63,-19.35 -1.8,-16.4 23.73,-45.4 34.56,-43.28z"/>
  <path fill="url(#id123)" d="M502.1 194.87c5.42,8.44 -4.97,51.5 -25.44,52.87 -9.2,0.62 -18.83,-6.68 -24.14,-13.33 -6.38,-7.99 -11.68,-21.93 -5.12,-30.9 9.73,-13.32 48.13,-17.51 54.7,-8.64z"/>
  <path fill="url(#id124)" d="M469.09 493.84c6.81,-7.36 4.16,-51.56 -15.75,-56.51 -8.96,-2.23 -19.71,3.26 -26.11,8.88 -7.69,6.74 -15.35,19.53 -10.48,29.51 7.24,14.82 44.31,25.7 52.34,18.12z"/>
  <path fill="url(#id125)" d="M519.13 431.31c3.83,-9.26 -13.99,-49.81 -34.39,-47.54 -9.17,1.02 -17.35,9.91 -21.4,17.39 -4.87,9 -7.62,23.65 0.41,31.32 11.93,11.39 50.48,8.72 55.38,-1.17z"/>
  <path fill="url(#id126)" d="M544.49 352.22c0.08,-10.02 -31.67,-40.91 -49.72,-31.15 -8.11,4.39 -12.36,15.7 -13.3,24.16 -1.14,10.16 1.81,24.78 12.14,28.87 15.33,6.07 50.06,-10.87 50.88,-21.88z"/>
  <path fill="url(#id127)" d="M538.49 271.09c-3.45,-9.42 -44.02,-27.19 -57.49,-11.71 -6.06,6.96 -6.07,19.04 -3.98,27.29 2.51,9.92 10.41,22.56 21.51,22.77 16.49,0.3 43.05,-27.76 39.96,-38.35z"/>
  <path fill="url(#id128)" d="M173.05 486.26c8.17,5.82 51.68,-2.45 54.05,-22.83 1.06,-9.16 -5.75,-19.13 -12.14,-24.76 -7.67,-6.76 -21.34,-12.73 -30.61,-6.63 -13.78,9.08 -19.83,47.23 -11.3,54.22z"/>
  <path fill="url(#id129)" d="M126.7 422.17c5.52,8.38 49.08,16.38 58.65,-1.77 4.3,-8.17 1.54,-19.93 -2.38,-27.48 -4.71,-9.08 -15.3,-19.58 -26.16,-17.23 -16.12,3.48 -35.55,36.88 -30.11,46.48z"/>
  <path fill="url(#id130)" d="M106.07 342.64c1.84,9.86 38.89,34.12 54.75,21.1 7.13,-5.85 9.14,-17.76 8.46,-26.24 -0.82,-10.2 -6.51,-23.98 -17.43,-26.03 -16.21,-3.04 -47.07,20.21 -45.78,31.17z"/>
  <path fill="url(#id131)" d="M114.85 262.67c-1.65,9.89 24.83,45.4 44.19,38.6 8.71,-3.05 14.68,-13.55 16.95,-21.75 2.73,-9.86 2.11,-24.75 -7.44,-30.42 -14.19,-8.42 -51.15,2.84 -53.7,13.57z"/>
  <path fill="url(#id132)" d="M152.22 190.4c-5.25,8.55 6,51.39 26.49,52.35 9.22,0.43 18.69,-7.06 23.87,-13.81 6.22,-8.12 11.24,-22.17 4.51,-31 -10,-13.12 -48.49,-16.54 -54.87,-7.54z"/>
  <path fill="url(#id133)" d="M212.93 136.07c-8.06,5.97 -13.65,49.91 5.01,58.46 8.38,3.85 19.97,0.44 27.3,-3.89 8.8,-5.2 18.7,-16.35 15.76,-27.06 -4.37,-15.91 -38.78,-33.46 -48.07,-27.51z"/>
  <path fill="url(#id134)" d="M319.79 552.77c12.16,-1.01 41.66,-43.34 25.64,-61.29 -7.04,-7.88 -17.22,-11.34 -27.64,-10.85 -12.54,0.59 -26.86,5.9 -30.58,18.05 -5.76,18.77 18.96,54.83 32.58,54.09z"/>
  <path fill="url(#id135)" d="M318.88 547.24c9.96,-1.22 36.5,-36.67 24.5,-53.32 -5.4,-7.48 -17.15,-10.24 -25.67,-10.09 -10.22,0.18 -24.34,4.99 -27.06,15.76 -4.06,15.98 17.21,48.24 28.23,47.65z"/>
  <path fill="#095900" d="M325.24 138.72c102.84,0 186.21,83.36 186.21,186.2 0,102.84 -83.37,186.21 -186.21,186.21 -102.84,0 -186.2,-83.37 -186.2,-186.21 0,-102.84 83.36,-186.2 186.2,-186.2z"/>
  <path fill="#8AE316" d="M325.24 148.07c97.68,0 176.85,79.18 176.85,176.85 0,97.68 -79.17,176.85 -176.85,176.85 -97.67,0 -176.85,-79.17 -176.85,-176.85 0,-97.67 79.18,-176.85 176.85,-176.85z"/>
  <path fill="black" d="M325.24 151.59c95.73,0 173.34,77.6 173.34,173.33 0,95.73 -77.61,173.33 -173.34,173.33 -95.73,0 -173.33,-77.6 -173.33,-173.33 0,-95.73 77.6,-173.33 173.33,-173.33z"/>
  <path fill="#FEFEFE" fill-rule="nonzero" d="M216.99 379.87c-3.52,0 -6.5,-1.2 -8.94,-3.58 -2.43,-2.39 -3.64,-5.83 -3.64,-10.3 0,-2.93 0.57,-5.46 1.72,-7.55 1.16,-2.1 2.7,-3.71 4.63,-4.82 1.94,-1.11 4.07,-1.67 6.4,-1.67 1.77,0 3.34,0.34 4.7,1.03 1.36,0.69 2.49,1.48 3.37,2.39l-2.65 3.09c-0.71,-0.72 -1.5,-1.29 -2.36,-1.71 -0.87,-0.43 -1.85,-0.64 -2.93,-0.64 -2.27,0 -4.15,0.87 -5.61,2.61 -1.47,1.75 -2.2,4.13 -2.2,7.15 0,3.07 0.7,5.48 2.09,7.23 1.4,1.74 3.26,2.61 5.59,2.61 1.25,0 2.37,-0.25 3.34,-0.76 0.96,-0.51 1.84,-1.18 2.64,-2l2.65 3.01c-2.37,2.61 -5.29,3.91 -8.8,3.91z"/>
  <path fill="#FEFEFE" fill-rule="nonzero" d="M237.36 379.74c-2.61,0 -4.92,-0.93 -6.92,-2.78 -2.01,-1.85 -3.01,-4.46 -3.01,-7.8 0,-3.38 1,-6 3.01,-7.85 2,-1.85 4.31,-2.78 6.92,-2.78 2.61,0 4.93,0.93 6.95,2.78 2.01,1.85 3.02,4.47 3.02,7.85 0,3.34 -1.01,5.95 -3.02,7.8 -2.02,1.85 -4.34,2.78 -6.95,2.78zm0 -3.88c1.53,0 2.74,-0.61 3.62,-1.85 0.88,-1.23 1.32,-2.85 1.32,-4.85 0,-2.03 -0.44,-3.67 -1.32,-4.9 -0.88,-1.24 -2.09,-1.86 -3.62,-1.86 -1.54,0 -2.74,0.62 -3.6,1.86 -0.87,1.23 -1.3,2.87 -1.3,4.9 0,2 0.43,3.62 1.3,4.85 0.86,1.24 2.06,1.85 3.6,1.85z"/>
  <path fill="#FEFEFE" fill-rule="nonzero" d="M250.26 379.37l0 -20.31 4.05 0 0.34 3.6 0.17 0c1.53,-2.73 3.51,-4.1 5.92,-4.1 0.99,0 1.79,0.14 2.38,0.41l-0.85 4.14c-0.37,-0.11 -0.71,-0.19 -1.02,-0.25 -0.31,-0.05 -0.69,-0.08 -1.15,-0.08 -0.82,0 -1.69,0.31 -2.62,0.94 -0.92,0.61 -1.7,1.7 -2.32,3.24l0 12.41 -4.9 0z"/>
  <path fill="#FEFEFE" fill-rule="nonzero" d="M273.41 379.87c-2.9,0 -5.34,-0.94 -7.33,-2.81 -1.98,-1.88 -2.98,-4.49 -2.98,-7.82 0,-2.21 0.46,-4.11 1.38,-5.71 0.93,-1.6 2.13,-2.83 3.61,-3.68 1.47,-0.86 3.02,-1.29 4.64,-1.29 2.84,0 4.99,0.9 6.45,2.69 1.46,1.79 2.19,4.11 2.19,6.95 0,0.99 -0.06,1.77 -0.2,2.32l-13.3 0c0.2,1.79 0.86,3.18 1.98,4.18 1.13,0.99 2.52,1.49 4.2,1.49 0.91,0 1.75,-0.13 2.53,-0.4 0.79,-0.26 1.56,-0.62 2.33,-1.09l1.65 2.98c-0.99,0.63 -2.1,1.15 -3.32,1.57 -1.22,0.41 -2.5,0.62 -3.83,0.62zm-5.56 -12.72l9.26 0c-0.02,-1.5 -0.37,-2.69 -1.06,-3.56 -0.71,-0.9 -1.77,-1.35 -3.19,-1.35 -1.25,0 -2.35,0.44 -3.28,1.31 -0.91,0.84 -1.49,2.04 -1.73,3.6z"/>
  <path fill="#FEFEFE" fill-rule="nonzero" d="M289.7 379.87c-3.68,0 -4.77,-2.02 -4.77,-5.4l0 -22.03 4.89 0 0 21.82c0,0.52 0.05,0.97 0.28,1.23 0.3,0.33 1.21,0.29 1.6,0.21l0.59 3.76c-0.65,0.27 -1.52,0.41 -2.59,0.41z"/>
  <path fill="#FEFEFE" fill-rule="nonzero" d="M295.69 379.37l0 -26.93 7.46 0c4.26,0 7.59,1.06 9.97,3.28 2.39,2.22 3.58,5.62 3.58,10.07 0,4.47 -1.18,7.86 -3.54,10.15 -2.36,2.29 -5.61,3.43 -9.75,3.43l-7.72 0zm4.95 -3.99l2.17 0c2.81,0 4.98,-0.78 6.52,-2.36 1.53,-1.58 2.24,-3.91 2.24,-7.23 0,-3.3 -0.71,-5.7 -2.24,-7.21 -1.54,-1.51 -3.71,-2.27 -6.52,-2.27l-2.17 0 0 19.07z"/>
  <path fill="#FEFEFE" fill-rule="nonzero" d="M325.16 364.99l3.96 0c3.92,0 5.88,-1.48 5.88,-4.56 0,-1.53 -0.5,-2.61 -1.51,-3.23 -1.01,-0.62 -2.47,-0.93 -4.37,-0.93l-3.96 0 0 8.72zm0 14.38l-4.94 0 0 -26.93 9.41 0c2.9,0 5.33,0.58 7.29,1.74 1.95,1.15 2.93,3.23 2.93,6.25 0,2.06 -0.5,3.72 -1.51,4.99 -1,1.26 -2.22,2.16 -3.91,2.71l6.59 11.24 -5.6 0 -5.94 -10.54 -4.32 0 0 10.54z"/>
  <path fill="#FEFEFE" fill-rule="nonzero" d="M351.42 365.04l-0.92 3.05 7.04 0 -0.92 -3.05c-0.46,-1.42 -0.89,-2.89 -1.31,-4.4 -0.42,-1.51 -0.83,-3.01 -1.23,-4.49l-0.17 0c-0.37,1.51 -0.77,3.02 -1.18,4.51 -0.42,1.5 -0.86,2.96 -1.31,4.38zm9.51 14.33l-2.2 -7.4 -9.45 0 -2.22 7.4 -5.08 0 9.17 -26.93 5.86 0 9.17 26.93 -5.25 0z"/>
  <path fill="#FEFEFE" fill-rule="nonzero" d="M369.39 379.37l-5.55 -26.93 5.19 0 2.43 13.59c0.23,1.43 0.46,2.87 0.69,4.31l0.62 3.94 0.3 0c0.24,-1.31 0.43,-2.62 0.71,-3.94 0.32,-1.44 0.62,-2.88 0.94,-4.31l3.41 -13.59 4.41 0 3.41 13.59c0.31,1.4 0.62,2.83 0.93,4.26 0.29,1.33 0.57,2.66 0.86,3.99l0.23 0c0.19,-1.33 0.38,-2.66 0.59,-3.97 0.23,-1.42 0.44,-2.85 0.65,-4.28l2.42 -13.59 4.84 0 -5.33 26.93 -6.2 0 -3.46 -14.16c-0.22,-1.04 -0.44,-2.09 -0.65,-3.13 -0.2,-0.98 -0.38,-1.95 -0.55,-2.9l-0.19 0c-0.36,1.92 -0.75,3.93 -1.22,6.03l-3.36 14.16 -6.12 0z"/>
  <path fill="#5FA706" fill-rule="nonzero" d="M400.88 379.4l0 -1.46c2.25,-2.14 4.01,-3.94 5.29,-5.41 1.28,-1.47 1.91,-2.8 1.91,-3.99 0,-0.83 -0.23,-1.5 -0.69,-2.01 -0.46,-0.51 -1.14,-0.75 -2.05,-0.75 -0.63,0 -1.2,0.17 -1.73,0.51 -0.52,0.35 -1,0.76 -1.43,1.24l-1.43 -1.4c0.69,-0.73 1.43,-1.31 2.2,-1.73 0.77,-0.42 1.69,-0.63 2.74,-0.63 1.48,0 2.66,0.43 3.54,1.27 0.88,0.84 1.32,1.97 1.32,3.38 0,1.38 -0.58,2.8 -1.73,4.27 -1.15,1.46 -2.56,3.04 -4.22,4.74 0.43,-0.03 0.88,-0.06 1.35,-0.1 0.47,-0.03 0.9,-0.04 1.29,-0.04l4.18 0 0 2.11 -10.54 0z"/>
  <path fill="#5FA706" fill-rule="nonzero" d="M417.79 379.7c-1.6,0 -2.86,-0.7 -3.79,-2.08 -0.92,-1.38 -1.39,-3.36 -1.39,-5.95 0,-2.58 0.47,-4.54 1.39,-5.88 0.93,-1.35 2.19,-2.02 3.79,-2.02 1.59,0 2.85,0.67 3.78,2.02 0.93,1.34 1.39,3.3 1.39,5.88 0,2.59 -0.46,4.57 -1.39,5.95 -0.93,1.38 -2.19,2.08 -3.78,2.08zm0 -1.98c0.81,0 1.47,-0.46 1.98,-1.37 0.5,-0.92 0.75,-2.47 0.75,-4.68 0,-2.2 -0.25,-3.74 -0.75,-4.61 -0.51,-0.87 -1.17,-1.31 -1.98,-1.31 -0.81,0 -1.48,0.44 -1.99,1.31 -0.52,0.87 -0.77,2.41 -0.77,4.61 0,2.21 0.25,3.76 0.77,4.68 0.51,0.91 1.18,1.37 1.99,1.37z"/>
  <path fill="#5FA706" fill-rule="nonzero" d="M424.99 379.4l0 -2.04 3.59 0 0 -10.51 -2.82 0 0 -1.56c1.38,-0.27 2.53,-0.68 3.44,-1.22l1.88 0 0 13.29 3.17 0 0 2.04 -9.26 0z"/>
  <path fill="#5FA706" fill-rule="nonzero" d="M440.91 379.7c-1.5,0 -2.75,-0.4 -3.75,-1.18 -0.99,-0.79 -1.49,-1.8 -1.49,-3.04 0,-0.98 0.29,-1.8 0.88,-2.45 0.59,-0.65 1.25,-1.16 1.98,-1.55l0 -0.09c-0.6,-0.41 -1.11,-0.9 -1.52,-1.49 -0.42,-0.58 -0.63,-1.28 -0.63,-2.08 0,-1.24 0.44,-2.22 1.31,-2.95 0.87,-0.73 1.97,-1.1 3.3,-1.1 1.39,0 2.48,0.38 3.29,1.15 0.81,0.76 1.21,1.75 1.21,2.97 0,0.79 -0.22,1.5 -0.67,2.12 -0.45,0.63 -0.92,1.12 -1.43,1.47l0 0.1c0.72,0.4 1.34,0.9 1.88,1.52 0.54,0.6 0.81,1.43 0.81,2.45 0,1.17 -0.47,2.16 -1.42,2.95 -0.95,0.8 -2.19,1.2 -3.75,1.2zm1.03 -8.85c0.95,-0.88 1.42,-1.81 1.42,-2.79 0,-0.7 -0.21,-1.3 -0.63,-1.77 -0.43,-0.47 -1.02,-0.71 -1.79,-0.71 -0.65,0 -1.2,0.2 -1.63,0.6 -0.43,0.4 -0.65,0.95 -0.65,1.64 0,0.82 0.33,1.44 0.98,1.87 0.65,0.42 1.42,0.81 2.3,1.16zm-0.98 7.04c0.8,0 1.46,-0.22 1.96,-0.65 0.51,-0.44 0.76,-1.02 0.76,-1.76 0,-0.88 -0.38,-1.55 -1.14,-1.99 -0.76,-0.44 -1.67,-0.88 -2.75,-1.31 -0.54,0.37 -0.99,0.81 -1.34,1.32 -0.35,0.52 -0.53,1.1 -0.53,1.74 0,0.79 0.29,1.42 0.87,1.91 0.58,0.49 1.31,0.74 2.17,0.74z"/>
  <polygon fill="#5FA706" fill-rule="nonzero" points="316.4,319.4 333.44,319.4 331.15,329.22 318.69,329.22 "/>
  <path fill="#FEFEFE" fill-rule="nonzero" d="M291.45 253.07c0.09,17.18 15.74,47.7 29.41,60.76 0.36,0.34 0.44,0.28 0.75,0.28 -10.67,-18.32 -20.78,-42.96 -20.91,-60.89 0.02,-16.93 7.35,-26.99 18.04,-32.37 -0.12,-0.13 -0.31,-0.17 -0.72,-0.1 -7.98,1.28 -14.66,5.4 -19.51,11.44 -4.6,5.72 -7.1,13.35 -7.06,20.88zm40.71 60.13c14.98,-18.15 30.2,-41.7 30.31,-61.66 0.07,-12.13 -5.83,-20.47 -14.21,-25.9 0.13,-0.08 0.23,-0.09 0.53,0.05 9.58,4.56 17.22,13.75 17.1,26.85 -0.03,4.52 -1.78,12.92 -5.39,20.89 -5.36,12.05 -15.05,27.47 -27.68,39.55 -0.3,0.29 -0.42,0.22 -0.66,0.22zm-14.23 0c-14.99,-18.15 -30.2,-41.7 -30.31,-61.66 -0.07,-12.13 5.83,-20.47 14.21,-25.9 -0.13,-0.08 -0.23,-0.09 -0.53,0.05 -9.58,4.56 -17.23,13.75 -17.1,26.85 0.02,4.52 1.78,12.92 5.38,20.89 5.36,12.05 15.06,27.47 27.69,39.55 0.29,0.29 0.42,0.22 0.66,0.22zm8.89 1.27c3.71,-12.21 7.31,-25.25 9.47,-37.77 1.42,-8.27 2.09,-16.42 2.11,-24.46 0.05,-20.95 -6.92,-31.25 -13.35,-31.43 -6.44,0.18 -13.42,10.48 -13.36,31.43 0.02,8.04 0.69,16.19 2.11,24.46 2.15,12.52 5.76,25.56 9.47,37.77l3.55 0zm31.82 -61.4c-0.09,17.18 -15.74,47.7 -29.42,60.76 -0.36,0.34 -0.44,0.28 -0.75,0.28 10.68,-18.32 20.79,-42.96 20.91,-60.89 -0.02,-16.93 -7.34,-26.99 -18.03,-32.37 0.11,-0.13 0.3,-0.17 0.72,-0.1 7.98,1.28 14.66,5.4 19.5,11.44 4.61,5.72 7.1,13.35 7.07,20.88z"/>
 </g>
</svg>
