<svg xmlns="http://www.w3.org/2000/svg" xml:space="preserve" version="1.1" shape-rendering="geometricPrecision" text-rendering="geometricPrecision" image-rendering="optimizeQuality" fill-rule="evenodd" clip-rule="evenodd"
viewBox="0 0 886 886"
 xmlns:xlink="http://www.w3.org/1999/xlink">
 <g id="Layer_x0020_1">
  <polygon fill="#707070" fill-rule="nonzero" points="882.77,822.03 884.46,819.3 884.46,738.14 830.72,738.14 "/>
  <polygon fill="#707070" fill-rule="nonzero" points="710,721.42 762.05,637.45 657.9,637.45 "/>
  <polygon fill="#707070" fill-rule="nonzero" points="651.12,619.48 703.18,535.59 599.04,535.59 "/>
  <polygon fill="#707070" fill-rule="nonzero" points="651.75,822.03 703.81,738.14 599.7,738.14 "/>
  <polygon fill="#707070" fill-rule="nonzero" points="500.65,882.49 527.18,839.67 423.12,839.67 449.66,882.49 "/>
  <polygon fill="#707070" fill-rule="nonzero" points="825.83,513.81 877.88,429.86 773.76,429.86 "/>
  <polygon fill="#707070" fill-rule="nonzero" points="651.78,641.3 599.7,725.19 703.81,725.19 "/>
  <polygon fill="#707070" fill-rule="nonzero" points="591.94,541.58 539.86,625.55 644.02,625.55 "/>
  <polygon fill="#707070" fill-rule="nonzero" points="709.64,543.5 657.59,627.42 761.7,627.42 "/>
  <polygon fill="#707070" fill-rule="nonzero" points="708.41,337.74 656.36,421.69 760.46,421.69 "/>
  <polygon fill="#707070" fill-rule="nonzero" points="766.65,439.03 714.55,522.97 818.66,522.97 "/>
  <polygon fill="#707070" fill-rule="nonzero" points="419.79,438.43 367.69,522.35 471.8,522.35 "/>
  <polygon fill="#707070" fill-rule="nonzero" points="650.16,844.94 626.87,882.49 673.45,882.49 "/>
  <polygon fill="#707070" fill-rule="nonzero" points="825.21,540.52 714.91,725.92 884.46,725.92 884.46,640.15 "/>
  <polygon fill="#707070" fill-rule="nonzero" points="535.64,642.09 425.32,827.48 645.89,827.48 "/>
  <polygon fill="#707070" fill-rule="nonzero" points="476.69,718.37 587,532.97 366.47,532.97 "/>
  <polygon fill="#707070" fill-rule="nonzero" points="795.91,569 817.9,533.53 773.85,533.53 "/>
  <polygon fill="#707070" fill-rule="nonzero" points="737.95,569 759.96,533.53 715.96,533.53 "/>
  <polygon fill="#707070" fill-rule="nonzero" points="765.51,620.26 787.56,584.78 743.49,584.78 "/>
  <polygon fill="#707070" fill-rule="nonzero" points="592.71,722.84 614.76,687.29 570.7,687.29 "/>
  <polygon fill="#707070" fill-rule="nonzero" points="624.03,669.68 646.07,634.13 602.01,634.13 "/>
  <polygon fill="#707070" fill-rule="nonzero" points="565.18,669.68 587.19,634.13 543.19,634.13 "/>
  <polygon fill="#707070" fill-rule="nonzero" points="622.12,871.9 644.17,836.43 600.11,836.43 "/>
  <polygon fill="#707070" fill-rule="nonzero" points="564.23,871.9 586.27,836.43 542.24,836.43 "/>
  <polygon fill="#707070" fill-rule="nonzero" points="709.82,516.53 731.87,480.95 687.81,480.95 "/>
  <polygon fill="#707070" fill-rule="nonzero" points="737.65,468.42 759.69,432.89 715.64,432.89 "/>
  <polygon fill="#707070" fill-rule="nonzero" points="680.06,468.42 702.07,432.89 658.05,432.89 "/>
  <polygon fill="#707070" fill-rule="nonzero" points="826.91,419 848.91,383.53 804.86,383.53 "/>
  <polygon fill="#707070" fill-rule="nonzero" points="680.68,365.84 702.72,330.38 658.67,330.38 "/>
  <polygon fill="#707070" fill-rule="nonzero" points="766.95,539.69 744.91,575.19 788.97,575.19 "/>
  <polygon fill="#707070" fill-rule="nonzero" points="591.29,641.3 569.28,676.81 613.29,676.81 "/>
  <polygon fill="#707070" fill-rule="nonzero" points="593.19,841.58 571.18,877.09 615.2,877.09 "/>
  <polygon fill="#707070" fill-rule="nonzero" points="448.91,690.62 426.85,726.17 470.92,726.17 "/>
  <polygon fill="#707070" fill-rule="nonzero" points="708.75,435.26 686.71,470.78 730.77,470.78 "/>
  <polygon fill="#707070" fill-rule="nonzero" points="499.19,488.43 477.18,523.93 521.25,523.93 "/>
  <polygon fill="#707070" fill-rule="nonzero" points="796.07,384.62 774.03,420.18 818.08,420.18 "/>
  <polygon fill="#707070" fill-rule="nonzero" points="589.08,520.78 641.16,436.81 536.98,436.81 "/>
  <polygon fill="#707070" fill-rule="nonzero" points="416.27,420.14 468.36,336.21 364.17,336.21 "/>
  <polygon fill="#707070" fill-rule="nonzero" points="357.39,318.22 409.49,234.3 305.38,234.3 "/>
  <polygon fill="#707070" fill-rule="nonzero" points="358.05,520.78 410.13,436.81 306.02,436.81 "/>
  <polygon fill="#707070" fill-rule="nonzero" points="358.09,340.02 306.02,423.94 410.13,423.94 "/>
  <polygon fill="#707070" fill-rule="nonzero" points="356.52,543.63 304.4,627.6 408.55,627.6 "/>
  <polygon fill="#707070" fill-rule="nonzero" points="386.32,672.64 408.41,637.18 364.39,637.18 "/>
  <polygon fill="#707070" fill-rule="nonzero" points="502.23,267.76 524.22,232.25 480.15,232.25 "/>
  <polygon fill="#707070" fill-rule="nonzero" points="444.29,267.76 466.31,232.25 422.29,232.25 "/>
  <polygon fill="#707070" fill-rule="nonzero" points="471.8,319.04 493.86,283.47 449.78,283.47 "/>
  <polygon fill="#707070" fill-rule="nonzero" points="299.08,421.53 321.02,386.05 277,386.05 "/>
  <polygon fill="#707070" fill-rule="nonzero" points="330.36,368.37 352.38,332.89 308.35,332.89 "/>
  <polygon fill="#707070" fill-rule="nonzero" points="271.48,368.37 293.54,332.89 249.47,332.89 "/>
  <polygon fill="#707070" fill-rule="nonzero" points="298.04,622.85 320.12,587.31 276.1,587.31 "/>
  <polygon fill="#707070" fill-rule="nonzero" points="328.46,570.63 350.51,535.1 306.44,535.1 "/>
  <polygon fill="#707070" fill-rule="nonzero" points="270.56,570.63 292.57,535.1 248.52,535.1 "/>
  <polygon fill="#707070" fill-rule="nonzero" points="416.16,215.22 438.17,179.71 394.12,179.71 "/>
  <polygon fill="#707070" fill-rule="nonzero" points="386.32,167.11 408.41,131.65 364.35,131.65 "/>
  <polygon fill="#707070" fill-rule="nonzero" points="473.3,238.4 451.22,273.92 495.28,273.92 "/>
  <polygon fill="#707070" fill-rule="nonzero" points="299.56,540.31 277.51,575.82 321.57,575.82 "/>
  <polygon fill="#707070" fill-rule="nonzero" points="155.21,389.38 133.16,424.9 177.18,424.9 "/>
  <polygon fill="#707070" fill-rule="nonzero" points="415.06,134.03 393.01,169.47 437.04,169.47 "/>
  <polygon fill="#707070" fill-rule="nonzero" points="53.26,564.55 52.5,565.75 52.5,600.78 75.73,600.78 "/>
  <polygon fill="#707070" fill-rule="nonzero" points="127.88,608.03 105.42,644.29 150.41,644.29 "/>
  <polygon fill="#707070" fill-rule="nonzero" points="153.35,652.05 130.85,688.31 175.85,688.31 "/>
  <polygon fill="#707070" fill-rule="nonzero" points="153.07,564.55 130.58,600.78 175.57,600.78 "/>
  <polygon fill="#707070" fill-rule="nonzero" points="218.38,538.39 206.92,556.91 251.9,556.91 240.41,538.39 "/>
  <polygon fill="#707070" fill-rule="nonzero" points="77.83,697.73 55.33,734 100.33,734 "/>
  <polygon fill="#707070" fill-rule="nonzero" points="153.07,642.63 175.57,606.36 130.58,606.36 "/>
  <polygon fill="#707070" fill-rule="nonzero" points="178.89,685.68 201.46,649.41 156.4,649.41 "/>
  <polygon fill="#707070" fill-rule="nonzero" points="128.04,684.86 150.54,648.62 105.52,648.62 "/>
  <polygon fill="#707070" fill-rule="nonzero" points="128.57,773.8 151.06,737.53 106.07,737.53 "/>
  <polygon fill="#707070" fill-rule="nonzero" points="103.41,730.05 125.94,693.78 80.94,693.78 "/>
  <polygon fill="#707070" fill-rule="nonzero" points="253.3,730.28 275.87,694.06 230.83,694.06 "/>
  <polygon fill="#707070" fill-rule="nonzero" points="153.77,554.58 163.82,538.39 143.71,538.39 "/>
  <polygon fill="#707070" fill-rule="nonzero" points="78.11,686.17 125.8,606.09 52.5,606.09 52.5,643.15 "/>
  <polygon fill="#707070" fill-rule="nonzero" points="203.25,642.28 250.95,562.12 155.6,562.12 "/>
  <polygon fill="#707070" fill-rule="nonzero" points="228.73,609.33 181.04,689.42 276.35,689.42 "/>
  <polygon fill="#707070" fill-rule="nonzero" points="90.78,673.85 81.25,689.22 100.33,689.22 "/>
  <polygon fill="#707070" fill-rule="nonzero" points="115.83,673.85 106.32,689.22 125.32,689.22 "/>
  <polygon fill="#707070" fill-rule="nonzero" points="103.93,651.7 94.37,667.07 113.41,667.07 "/>
  <polygon fill="#707070" fill-rule="nonzero" points="178.57,607.4 169.07,622.76 188.1,622.76 "/>
  <polygon fill="#707070" fill-rule="nonzero" points="165.05,630.34 155.49,645.75 174.56,645.75 "/>
  <polygon fill="#707070" fill-rule="nonzero" points="190.49,630.34 180.97,645.75 200.01,645.75 "/>
  <polygon fill="#707070" fill-rule="nonzero" points="165.88,542.96 156.33,558.28 175.41,558.28 "/>
  <polygon fill="#707070" fill-rule="nonzero" points="190.91,542.96 181.38,558.28 200.39,558.28 "/>
  <polygon fill="#707070" fill-rule="nonzero" points="127.99,696.55 118.46,711.92 137.5,711.92 "/>
  <polygon fill="#707070" fill-rule="nonzero" points="115.93,717.35 106.42,732.73 125.46,732.73 "/>
  <polygon fill="#707070" fill-rule="nonzero" points="140.82,717.35 131.33,732.73 150.37,732.73 "/>
  <polygon fill="#707070" fill-rule="nonzero" points="77.38,738.7 67.86,754.04 86.9,754.04 "/>
  <polygon fill="#707070" fill-rule="nonzero" points="140.59,761.69 131.02,776.98 150.1,776.98 "/>
  <polygon fill="#707070" fill-rule="nonzero" points="103.27,686.51 112.79,671.19 93.75,671.19 "/>
  <polygon fill="#707070" fill-rule="nonzero" points="179.24,642.63 188.72,627.3 169.69,627.3 "/>
  <polygon fill="#707070" fill-rule="nonzero" points="178.41,556.07 187.89,540.74 168.86,540.74 "/>
  <polygon fill="#707070" fill-rule="nonzero" points="240.73,621.31 250.26,605.94 231.22,605.94 "/>
  <polygon fill="#707070" fill-rule="nonzero" points="128.43,731.71 137.98,716.31 118.91,716.31 "/>
  <polygon fill="#707070" fill-rule="nonzero" points="219,708.67 228.52,693.37 209.49,693.37 "/>
  <polygon fill="#707070" fill-rule="nonzero" points="90.71,753.56 100.23,738.19 81.19,738.19 "/>
  <polygon fill="#707070" fill-rule="nonzero" points="180.14,694.71 157.64,731 202.66,731 "/>
  <polygon fill="#707070" fill-rule="nonzero" points="254.83,738.22 232.33,774.49 277.35,774.49 "/>
  <polygon fill="#707070" fill-rule="nonzero" points="280.3,782.24 257.77,818.52 302.79,818.52 "/>
  <polygon fill="#707070" fill-rule="nonzero" points="280.02,694.71 257.5,731 302.48,731 "/>
  <polygon fill="#707070" fill-rule="nonzero" points="279.97,772.83 302.48,736.56 257.5,736.56 "/>
  <polygon fill="#707070" fill-rule="nonzero" points="280.65,684.86 303.21,648.55 258.21,648.55 "/>
  <polygon fill="#707070" fill-rule="nonzero" points="267.77,629.06 258.21,644.43 277.32,644.43 "/>
  <polygon fill="#707070" fill-rule="nonzero" points="217.68,804.05 208.18,819.41 227.2,819.41 "/>
  <polygon fill="#707070" fill-rule="nonzero" points="242.71,804.05 233.23,819.41 252.22,819.41 "/>
  <polygon fill="#707070" fill-rule="nonzero" points="230.83,781.9 221.3,797.26 240.36,797.26 "/>
  <polygon fill="#707070" fill-rule="nonzero" points="305.49,737.6 296.01,752.97 315.05,752.97 "/>
  <polygon fill="#707070" fill-rule="nonzero" points="292,760.58 282.45,775.94 301.48,775.94 "/>
  <polygon fill="#707070" fill-rule="nonzero" points="317.4,760.58 307.88,775.94 326.95,775.94 "/>
  <polygon fill="#707070" fill-rule="nonzero" points="305.97,650.59 296.43,665.96 315.42,665.96 "/>
  <polygon fill="#707070" fill-rule="nonzero" points="292.8,673.15 283.27,688.52 302.31,688.52 "/>
  <polygon fill="#707070" fill-rule="nonzero" points="317.82,673.15 308.33,688.52 327.37,688.52 "/>
  <polygon fill="#707070" fill-rule="nonzero" points="200.85,284.86 191.31,300.22 210.4,300.22 "/>
  <polygon fill="#707070" fill-rule="nonzero" points="213.73,305.64 204.18,321.01 223.28,321.01 "/>
  <polygon fill="#707070" fill-rule="nonzero" points="230.19,816.76 239.74,801.42 220.7,801.42 "/>
  <polygon fill="#707070" fill-rule="nonzero" points="305.28,686.28 314.81,670.94 295.78,670.94 "/>
  <polygon fill="#707070" fill-rule="nonzero" points="313.66,209.61 323.16,194.24 304.13,194.24 "/>
  <polygon fill="#707070" fill-rule="nonzero" points="201.34,319.98 210.87,304.65 191.83,304.65 "/>
  <polygon fill="#707070" fill-rule="nonzero" points="291.88,297 301.43,281.67 282.39,281.67 "/>
 </g>
</svg>
